<?xml version="1.0" encoding="UTF-8"?>
<svg version="1.1" xmlns="http://www.w3.org/2000/svg" width="1024" height="1050">
<path d="M0 0 C1.07862305 0.19835449 2.15724609 0.39670898 3.26855469 0.60107422 C72.15815319 13.71743673 140.24993547 52.83815052 183 109 C184.01049838 110.28351381 185.02232559 111.56598206 186.03515625 112.84765625 C236.31049272 176.93048377 258.55494259 258.74155841 249.47875977 339.52685547 C244.82988876 376.17029547 234.16583316 411.51018505 216.94140625 444.19824219 C216.01173141 445.97754725 215.11497706 447.77392755 214.21875 449.5703125 C205.3722563 467.0946369 193.82350447 483.73419142 180.94140625 498.53515625 C180.43053467 499.12490234 179.91966309 499.71464844 179.39331055 500.32226562 C178.40624112 501.45361003 177.40945073 502.5765713 176.40161133 503.68945312 C173.65322025 506.81794614 173 507.65380254 173 512 C174.6322315 513.71124657 174.6322315 513.71124657 176.875 515.1875 C182.24459541 519.13302174 187.09232093 523.50010185 192 528 C193.01740644 528.91367738 194.03566509 529.82640652 195.0546875 530.73828125 C200.76024277 535.86545054 206.09429125 541.09204967 211 547 C211.79535156 547.9075 212.59070313 548.815 213.41015625 549.75 C263.85796189 607.49860836 283.25706029 680.54651246 278.78466797 756.01904297 C278.27137352 762.76784233 277.29752578 769.36075805 276 776 C275.80664062 777.03785645 275.61328125 778.07571289 275.4140625 779.14501953 C264.72000919 835.37956685 237.56478789 884.38826099 197.4375 924.8125 C196.57519775 925.68414795 195.71289551 926.5557959 194.82446289 927.45385742 C149.38210972 972.67246262 82.51743432 1001.86461382 18.2421875 1002.203125 C17.34442596 1002.21013931 16.44666443 1002.21715363 15.521698 1002.22438049 C12.63941367 1002.24178676 9.75733497 1002.2482332 6.875 1002.25 C5.88890747 1002.25067474 4.90281494 1002.25134949 3.88684082 1002.25204468 C-10.9681445 1002.23589205 -25.36226144 1001.74192422 -40 999 C-40.98226562 998.82307617 -41.96453125 998.64615234 -42.9765625 998.46386719 C-65.00013559 994.42853528 -85.49688593 987.95695189 -106 979 C-106.77504883 978.66210449 -107.55009766 978.32420898 -108.34863281 977.97607422 C-133.26542533 966.98530442 -155.2023731 951.42503876 -176 934 C-176.3309668 934.58265625 -176.66193359 935.1653125 -177.00292969 935.765625 C-186.04489785 951.59684798 -195.52545877 966.45438199 -207.984375 979.83203125 C-209.90909611 981.90222547 -211.73747487 984.02953109 -213.5625 986.1875 C-217.07697769 990.19607659 -220.88817582 993.61455485 -225 997 C-225.78938965 997.65790527 -225.78938965 997.65790527 -226.59472656 998.32910156 C-268.47940268 1033.13598916 -320.89736719 1050.10348524 -375.3125 1045.25 C-399.34723899 1042.86187676 -422.29735149 1036.59794803 -444 1026 C-444.7125293 1025.65598145 -445.42505859 1025.31196289 -446.15917969 1024.95751953 C-464.55808354 1015.97580611 -481.84063145 1003.83541267 -496 989 C-496.804375 988.195625 -497.60875 987.39125 -498.4375 986.5625 C-499.283125 985.716875 -500.12875 984.87125 -501 984 C-501.57234375 983.46246094 -502.1446875 982.92492187 -502.734375 982.37109375 C-536.71027178 949.82218464 -554.72687105 899.42669256 -556.22265625 853.125 C-556.77674923 825.92934356 -552.69424787 799.45858157 -543 774 C-544.1293396 773.5678418 -544.1293396 773.5678418 -545.28149414 773.12695312 C-547.5195974 772.19915028 -549.44835144 771.24097196 -551.49609375 769.96875 C-552.12990967 769.57558594 -552.76372559 769.18242188 -553.41674805 768.77734375 C-554.41702026 768.14505859 -554.41702026 768.14505859 -555.4375 767.5 C-556.49094604 766.83677734 -556.49094604 766.83677734 -557.56567383 766.16015625 C-564.57275681 761.70490412 -571.33848502 756.95438038 -578 752 C-578.5475293 751.59281738 -579.09505859 751.18563477 -579.65917969 750.76611328 C-591.64175057 741.8022969 -602.95566476 732.09135716 -614 722 C-615.00113974 721.09226883 -616.00244953 720.18472519 -617.00390625 719.27734375 C-624.76838124 712.22481514 -632.31296109 705.08809982 -639.15625 697.125 C-641.21201767 694.75564066 -643.3231054 692.44214477 -645.4375 690.125 C-649.83741419 685.23620645 -653.97967578 680.20444087 -658 675 C-658.43683105 674.43571289 -658.87366211 673.87142578 -659.32373047 673.29003906 C-670.93337046 658.23297765 -681.56545286 642.51141279 -691 626 C-691.44811035 625.21737793 -691.8962207 624.43475586 -692.35791016 623.62841797 C-724.40824798 567.23934644 -744.7746676 501.75322166 -745.23828125 436.52734375 C-745.24802979 435.37759064 -745.25777832 434.22783752 -745.26782227 433.04324341 C-745.4424859 407.09499504 -745.11956989 381.65154696 -741 356 C-740.81276367 354.82147461 -740.62552734 353.64294922 -740.43261719 352.42871094 C-734.59023872 316.92036925 -723.66762159 282.80163614 -709 250 C-708.42813965 248.70956787 -708.42813965 248.70956787 -707.84472656 247.39306641 C-690.50136151 208.52242479 -665.59425048 173.04387656 -636.6953125 141.91796875 C-634.03388961 139.03668918 -631.4237672 136.1141955 -628.8125 133.1875 C-625.35365488 129.37291923 -621.79012856 125.91246863 -617.8515625 122.6015625 C-616.0256348 121.02217356 -614.36194426 119.3629303 -612.6875 117.625 C-609.01423836 113.89356453 -605.00817627 110.64825343 -600.9296875 107.37109375 C-598.0553283 105.04477904 -595.24851404 102.65221006 -592.4375 100.25 C-573.81033195 84.72735996 -553.15188277 71.76915667 -532 60 C-531.1857959 59.54625 -530.3715918 59.0925 -529.53271484 58.625 C-440.93939173 9.69799512 -332.90605569 -2.26562312 -227.421875 24.12890625 C-223.85217542 25.18343016 -220.29200358 26.26022858 -216.73974609 27.37207031 C-213.83497097 28.28051177 -210.92188434 29.14853906 -208 30 C-206.82953125 30.35191406 -205.6590625 30.70382813 -204.453125 31.06640625 C-198.83705018 30.95840481 -194.52369169 28.20225697 -189.625 25.625 C-163.27199733 12.38636368 -134.96286518 4.20819292 -106 -1 C-105.11151367 -1.16661133 -104.22302734 -1.33322266 -103.30761719 -1.50488281 C-70.14080786 -7.45789987 -33.03853241 -6.24751561 0 0 Z " fill="#28B3E0" transform="translate(745,4)"/>
<path d="M0 0 C1.07862305 0.19835449 2.15724609 0.39670898 3.26855469 0.60107422 C72.15815319 13.71743673 140.24993547 52.83815052 183 109 C184.01049838 110.28351381 185.02232559 111.56598206 186.03515625 112.84765625 C236.31049272 176.93048377 258.55494259 258.74155841 249.47875977 339.52685547 C244.82988876 376.17029547 234.16583316 411.51018505 216.94140625 444.19824219 C216.01173141 445.97754725 215.11497706 447.77392755 214.21875 449.5703125 C205.3722563 467.0946369 193.82350447 483.73419142 180.94140625 498.53515625 C180.43053467 499.12490234 179.91966309 499.71464844 179.39331055 500.32226562 C178.40624112 501.45361003 177.40945073 502.5765713 176.40161133 503.68945312 C173.65322025 506.81794614 173 507.65380254 173 512 C174.6322315 513.71124657 174.6322315 513.71124657 176.875 515.1875 C182.24459541 519.13302174 187.09232093 523.50010185 192 528 C193.01740644 528.91367738 194.03566509 529.82640652 195.0546875 530.73828125 C200.76024277 535.86545054 206.09429125 541.09204967 211 547 C211.79535156 547.9075 212.59070313 548.815 213.41015625 549.75 C263.85796189 607.49860836 283.25706029 680.54651246 278.78466797 756.01904297 C278.27137352 762.76784233 277.29752578 769.36075805 276 776 C275.80664062 777.03785645 275.61328125 778.07571289 275.4140625 779.14501953 C264.72000919 835.37956685 237.56478789 884.38826099 197.4375 924.8125 C196.57519775 925.68414795 195.71289551 926.5557959 194.82446289 927.45385742 C149.38210972 972.67246262 82.51743432 1001.86461382 18.2421875 1002.203125 C17.34442596 1002.21013931 16.44666443 1002.21715363 15.521698 1002.22438049 C12.63941367 1002.24178676 9.75733497 1002.2482332 6.875 1002.25 C5.88890747 1002.25067474 4.90281494 1002.25134949 3.88684082 1002.25204468 C-10.9681445 1002.23589205 -25.36226144 1001.74192422 -40 999 C-40.98226562 998.82307617 -41.96453125 998.64615234 -42.9765625 998.46386719 C-65.00013559 994.42853528 -85.49688593 987.95695189 -106 979 C-106.77504883 978.66210449 -107.55009766 978.32420898 -108.34863281 977.97607422 C-133.26542533 966.98530442 -155.2023731 951.42503876 -176 934 C-176.3309668 934.58265625 -176.66193359 935.1653125 -177.00292969 935.765625 C-186.04489785 951.59684798 -195.52545877 966.45438199 -207.984375 979.83203125 C-209.90909611 981.90222547 -211.73747487 984.02953109 -213.5625 986.1875 C-217.07697769 990.19607659 -220.88817582 993.61455485 -225 997 C-225.78938965 997.65790527 -225.78938965 997.65790527 -226.59472656 998.32910156 C-268.47940268 1033.13598916 -320.89736719 1050.10348524 -375.3125 1045.25 C-399.34723899 1042.86187676 -422.29735149 1036.59794803 -444 1026 C-444.7125293 1025.65598145 -445.42505859 1025.31196289 -446.15917969 1024.95751953 C-464.55808354 1015.97580611 -481.84063145 1003.83541267 -496 989 C-496.804375 988.195625 -497.60875 987.39125 -498.4375 986.5625 C-499.283125 985.716875 -500.12875 984.87125 -501 984 C-501.57234375 983.46246094 -502.1446875 982.92492187 -502.734375 982.37109375 C-536.71027178 949.82218464 -554.72687105 899.42669256 -556.22265625 853.125 C-556.76319122 826.59478945 -553.47931425 799.56287244 -543 775 C-539.39426381 775.57460353 -536.70157485 776.5180002 -533.54296875 778.3359375 C-532.69041504 778.81764404 -531.83786133 779.29935059 -530.95947266 779.7956543 C-529.58734619 780.57743042 -529.58734619 780.57743042 -528.1875 781.375 C-497.36397536 798.51374319 -464.23514656 810.69754419 -430 819 C-429.17661133 819.2047998 -428.35322266 819.40959961 -427.50488281 819.62060547 C-396.66466953 827.15710169 -365.34599413 829.47264183 -333.6875 829.4375 C-332.46218567 829.43763092 -331.23687134 829.43776184 -329.97442627 829.43789673 C-308.58734165 829.3967905 -287.80638473 827.61577353 -266.6875 824.375 C-265.14526004 824.14271241 -263.60294224 823.91094095 -262.06054688 823.6796875 C-258.37279086 823.12567576 -254.6861047 822.56490789 -251 822 C-251.45026561 820.64574845 -251.90085379 819.29160415 -252.3515625 817.9375 C-252.76390137 816.69806641 -252.76390137 816.69806641 -253.18457031 815.43359375 C-253.84859368 813.45186175 -254.52757233 811.47514577 -255.2109375 809.5 C-277.0417866 743.86093694 -269.57410932 669.34308256 -239.38037109 607.75537109 C-228.27919539 585.59621493 -214.30170409 565.64442966 -198 547 C-197.13632812 546.01128906 -196.27265625 545.02257812 -195.3828125 544.00390625 C-184.07682389 531.372735 -171.59798179 520.10900215 -158 510 C-157.37464355 509.52884766 -156.74928711 509.05769531 -156.10498047 508.57226562 C-123.0795598 483.83003998 -84.47058885 467.42718765 -44 459.8125 C-42.77470581 459.5798645 -42.77470581 459.5798645 -41.5246582 459.3425293 C-25.8334504 456.55814033 -10.10142564 455.59097286 5.8125 455.625 C6.69275848 455.62487915 7.57301697 455.6247583 8.47994995 455.62463379 C27.79744272 455.66206025 46.64339442 457.29536097 65.41772461 462.07910156 C66.51718037 462.35670822 66.51718037 462.35670822 67.63884735 462.6399231 C69.42634377 463.09152223 71.21323594 463.54551193 73 464 C73.02338951 455.18401086 73.04104843 446.36803275 73.05181217 437.55201912 C73.05698373 433.45638033 73.06397434 429.3607631 73.07543945 425.26513672 C73.08647564 421.29693268 73.09231967 417.32874908 73.09487724 413.36053085 C73.09669483 411.86263584 73.10024157 410.36474168 73.10573006 408.86685562 C73.20905121 387.72970373 73.20905121 387.72970373 70.5625 366.8125 C69.56899014 361.49801072 68.76252463 356.1988869 68.09375 350.83203125 C67.1180609 343.39950807 65.66552277 336.16617298 63.9375 328.875 C63.71166229 327.91989532 63.71166229 327.91989532 63.48126221 326.94549561 C52.97180552 282.78453255 35.49524234 240.2814621 11 202 C10.6282666 201.41669922 10.2565332 200.83339844 9.87353516 200.23242188 C7.65254534 196.77130132 5.35008743 193.37448452 3 190 C2.44046631 189.19369141 2.44046631 189.19369141 1.86962891 188.37109375 C-13.58523862 166.1717094 -31.18176121 145.78631945 -50.25 126.625 C-50.89936523 125.97096191 -51.54873047 125.31692383 -52.21777344 124.64306641 C-56.64836432 120.22710165 -61.25264806 116.07162496 -66 112 C-67.02087728 111.11072753 -68.04171417 110.22140869 -69.0625 109.33203125 C-90.26367748 91.14751068 -113.52321673 75.43435868 -138 62 C-138.80405273 61.55350098 -139.60810547 61.10700195 -140.43652344 60.64697266 C-159.79797347 49.95001799 -180.18918451 41.45039769 -201 34 C-201 33.01 -201 32.02 -201 31 C-170.66213987 15.6769419 -139.4532438 5.01566683 -106 -1 C-105.11151367 -1.16661133 -104.22302734 -1.33322266 -103.30761719 -1.50488281 C-70.14080786 -7.45789987 -33.03853241 -6.24751561 0 0 Z " fill="#FC2D87" transform="translate(745,4)"/>
<path d="M0 0 C5.9361803 1.48404507 11.41711305 3.74696364 17.03271484 6.15917969 C19.25336052 7.10828663 21.4800593 8.04239865 23.70703125 8.9765625 C57.39458662 23.1695687 89.21730288 40.25015619 118 63 C119.22396484 63.95519531 119.22396484 63.95519531 120.47265625 64.9296875 C135.39612267 76.70763723 149.40670121 89.34305355 162.875 102.75 C163.57657227 103.44689941 164.27814453 104.14379883 165.00097656 104.86181641 C169.53714522 109.41200556 173.81893755 114.12316951 178 119 C178.845625 119.96421875 179.69125 120.9284375 180.5625 121.921875 C203.66495764 148.72664958 222.12691619 178.45295709 238 210 C238.4031543 210.79164551 238.80630859 211.58329102 239.22167969 212.39892578 C258.32860854 250.11597076 270.78994245 292.79849116 275.72216797 334.76953125 C275.95171608 336.61237094 276.21936252 338.45042153 276.49707031 340.28662109 C278.60826798 355.87463884 278.15613498 371.78879642 278.13037109 387.47900391 C278.12498155 391.38838527 278.13036204 395.29765323 278.13671875 399.20703125 C278.13605834 401.72916692 278.13477796 404.25130251 278.1328125 406.7734375 C278.13483673 407.92371429 278.13686096 409.07399109 278.13894653 410.25912476 C278.1180876 417.55275472 277.71935371 424.74196208 277 432 C276.21524292 431.86769989 275.43048584 431.73539978 274.62194824 431.59909058 C267.00703784 430.31754511 259.38238925 429.10999905 251.75 427.9375 C250.63109375 427.76412109 249.5121875 427.59074219 248.359375 427.41210938 C246.7196875 427.15977539 246.7196875 427.15977539 245.046875 426.90234375 C244.07588867 426.75273193 243.10490234 426.60312012 242.10449219 426.44897461 C235.38259193 425.47684701 228.91634552 424.8353154 222.12890625 424.796875 C221.29777313 424.78986069 220.46664001 424.78284637 219.61032104 424.77561951 C216.9276586 424.75815178 214.24521731 424.75176261 211.5625 424.75 C210.18482956 424.74898788 210.18482956 424.74898788 208.77932739 424.74795532 C193.99988734 424.76518772 179.58296539 425.41972389 165 428 C164.01370605 428.17160645 163.02741211 428.34321289 162.01123047 428.52001953 C111.58761028 437.56378151 63.87345561 460.37397829 26.51953125 495.6328125 C24.41775155 497.60750784 22.2775709 499.46890062 20.0625 501.3125 C10.28466383 509.83260621 1.99542522 519.96138082 -5.85546875 530.234375 C-8 533 -8 533 -10 535 C-10.76183594 534.15115234 -10.76183594 534.15115234 -11.5390625 533.28515625 C-14.56860942 530.47200554 -17.83344484 528.54062851 -21.375 526.4375 C-29.42389402 521.52632598 -36.7421632 516.00281813 -44 510 C-44.53689453 509.56075195 -45.07378906 509.12150391 -45.62695312 508.66894531 C-68.43723426 489.97449255 -88.03587605 468.98119254 -104.80419922 444.71533203 C-105.95447713 443.06530088 -107.13489655 441.43640729 -108.31640625 439.80859375 C-114.28861694 431.41725974 -119.08554137 422.44243552 -123.8125 413.3125 C-124.13310394 412.69543182 -124.45370789 412.07836365 -124.7840271 411.44259644 C-128.9220053 403.44852445 -132.69157239 395.37439081 -136 387 C-136.56013794 385.5912561 -136.56013794 385.5912561 -137.1315918 384.15405273 C-167.6454091 306.4624649 -166.1858441 222.7021252 -133.2734375 145.89404297 C-118.26566546 111.78703957 -96.83334827 81.70732678 -71 55 C-70.43748535 54.41557129 -69.8749707 53.83114258 -69.29541016 53.22900391 C-62.24723716 45.93532126 -54.97619058 39.2845958 -47 33 C-45.89235561 32.08204599 -44.78700262 31.16132216 -43.68359375 30.23828125 C-33.68463028 21.94354622 -23.03236688 14.84494729 -12 8 C-11.08943848 7.4337793 -10.17887695 6.86755859 -9.24072266 6.28417969 C-8.34272949 5.73407227 -7.44473633 5.18396484 -6.51953125 4.6171875 C-5.29327026 3.86477783 -5.29327026 3.86477783 -4.04223633 3.09716797 C-2 2 -2 2 0 2 C0 1.34 0 0.68 0 0 Z " fill="#51C2C6" transform="translate(541,36)"/>
<path d="M0 0 C1.07862305 0.19835449 2.15724609 0.39670898 3.26855469 0.60107422 C72.15815319 13.71743673 140.24993547 52.83815052 183 109 C184.01049838 110.28351381 185.02232559 111.56598206 186.03515625 112.84765625 C236.31049272 176.93048377 258.55494259 258.74155841 249.47875977 339.52685547 C244.82988876 376.17029547 234.16583316 411.51018505 216.94140625 444.19824219 C216.01173141 445.97754725 215.11497706 447.77392755 214.21875 449.5703125 C206.03243325 465.7868696 195.44720008 480.92377789 184 495 C183.52900879 495.58313965 183.05801758 496.1662793 182.57275391 496.76708984 C181.10051036 498.58268006 179.61578758 500.387116 178.125 502.1875 C177.44594604 503.01797852 177.44594604 503.01797852 176.75317383 503.86523438 C174.36060371 506.70576936 172.36175616 508.47374671 169 510 C168.12432373 509.410979 168.12432373 509.410979 167.23095703 508.81005859 C164.53067066 506.99582868 161.827854 505.1854022 159.125 503.375 C158.2071875 502.75753906 157.289375 502.14007813 156.34375 501.50390625 C144.17844662 493.32027459 144.17844662 493.32027459 131 487 C131 486.34 131 485.68 131 485 C130.33613281 484.81824219 129.67226563 484.63648438 128.98828125 484.44921875 C124.18986161 483.08324528 120.24310761 481.65194226 116 479 C112.70836936 477.5599116 109.3526684 476.29018675 106 475 C104.92492187 474.57203125 103.84984375 474.1440625 102.7421875 473.703125 C97.62342143 471.68412214 92.6244542 469.73688857 87.24169922 468.56982422 C84.359389 467.83716118 81.5715401 466.89209466 78.75390625 465.94140625 C77.67568604 465.57861572 76.59746582 465.2158252 75.48657227 464.84204102 C74.66600342 464.56416748 73.84543457 464.28629395 73 464 C73.00222061 463.16300568 73.00444122 462.32601135 73.00672913 461.46365356 C73.02694419 453.49311244 73.04208067 445.52258019 73.05181217 437.55201912 C73.05698373 433.45638033 73.06397434 429.3607631 73.07543945 425.26513672 C73.08647564 421.29693268 73.09231967 417.32874908 73.09487724 413.36053085 C73.09669483 411.86263584 73.10024157 410.36474168 73.10573006 408.86685562 C73.20905121 387.72970373 73.20905121 387.72970373 70.5625 366.8125 C69.56899014 361.49801072 68.76252463 356.1988869 68.09375 350.83203125 C67.1180609 343.39950807 65.66552277 336.16617298 63.9375 328.875 C63.71166229 327.91989532 63.71166229 327.91989532 63.48126221 326.94549561 C52.97180552 282.78453255 35.49524234 240.2814621 11 202 C10.6282666 201.41669922 10.2565332 200.83339844 9.87353516 200.23242188 C7.65254534 196.77130132 5.35008743 193.37448452 3 190 C2.62697754 189.46246094 2.25395508 188.92492187 1.86962891 188.37109375 C-13.58523862 166.1717094 -31.18176121 145.78631945 -50.25 126.625 C-50.89936523 125.97096191 -51.54873047 125.31692383 -52.21777344 124.64306641 C-56.64836432 120.22710165 -61.25264806 116.07162496 -66 112 C-67.02087728 111.11072753 -68.04171417 110.22140869 -69.0625 109.33203125 C-90.26367748 91.14751068 -113.52321673 75.43435868 -138 62 C-138.80405273 61.55350098 -139.60810547 61.10700195 -140.43652344 60.64697266 C-159.79797347 49.95001799 -180.18918451 41.45039769 -201 34 C-201 33.01 -201 32.02 -201 31 C-170.66213987 15.6769419 -139.4532438 5.01566683 -106 -1 C-105.11151367 -1.16661133 -104.22302734 -1.33322266 -103.30761719 -1.50488281 C-70.14080786 -7.45789987 -33.03853241 -6.24751561 0 0 Z " fill="#FCDD23" transform="translate(745,4)"/>
<path d="M0 0 C1.32537277 0.00081573 1.32537277 0.00081573 2.67752075 0.00164795 C27.66502669 0.07170612 58.60096515 0.92388513 81.1875 12.375 C83.14393784 12.87019796 85.10104278 13.36329139 87.06445312 13.83007812 C90.44305452 14.69726284 93.67848773 15.88992497 96.9375 17.125 C97.97293945 17.51425659 97.97293945 17.51425659 99.02929688 17.91137695 C104.37942258 19.96716647 109.46176678 22.40402411 114.546875 25.05078125 C118.0145145 26.78973064 121.52457536 28.10706455 125.1875 29.375 C125.1875 30.035 125.1875 30.695 125.1875 31.375 C126.13625 31.58125 127.085 31.7875 128.0625 32 C136.6738905 34.52373425 144.09745627 40.5947089 151.5 45.5 C152.27706299 46.01481934 153.05412598 46.52963867 153.85473633 47.06005859 C157.77402461 49.68082579 161.56227607 52.35036207 165.1875 55.375 C164.73761719 55.75269531 164.28773438 56.13039063 163.82421875 56.51953125 C159.59468847 60.13878862 155.60242963 63.91638915 151.6875 67.875 C147.34621444 72.25530339 142.94138658 76.44405513 138.1875 80.375 C137.68299316 80.79330078 137.17848633 81.21160156 136.65869141 81.64257812 C109.6933892 103.89572279 79.91193147 121.90660834 47.1875 134.375 C46.18855713 134.75809326 46.18855713 134.75809326 45.16943359 135.14892578 C34.05802999 139.375 34.05802999 139.375 29.1875 139.375 C29.06922852 140.10138672 28.95095703 140.82777344 28.82910156 141.57617188 C28.17886555 144.41266564 27.25324835 146.57626156 25.921875 149.15625 C25.45072266 150.07003418 24.97957031 150.98381836 24.49414062 151.92529297 C23.98044922 152.89869629 23.46675781 153.87209961 22.9375 154.875 C22.13602539 156.39891357 22.13602539 156.39891357 21.31835938 157.95361328 C6.01843577 186.66100777 -13.18193203 213.67726397 -35.2578125 237.57421875 C-37.23314781 239.73983866 -39.15717876 241.928972 -41.0703125 244.1484375 C-45.05684922 248.71623214 -49.27448315 253.02859264 -53.5625 257.3125 C-54.35454834 258.10446777 -55.14659668 258.89643555 -55.96264648 259.71240234 C-60.92757193 264.62920333 -65.95697038 269.22015182 -71.46484375 273.5234375 C-73.72230364 275.30386344 -75.82469981 277.17657326 -77.9375 279.125 C-95.77014234 295.11726288 -116.14416711 308.40297354 -136.8125 320.375 C-137.53453613 320.79990723 -138.25657227 321.22481445 -139.00048828 321.66259766 C-170.81679405 340.35236237 -218.24585165 365.375 -255.8125 365.375 C-256.1425 366.365 -256.4725 367.355 -256.8125 368.375 C-258.02982195 364.25406586 -259.24340878 360.13212998 -260.44921875 356.0078125 C-261.24555724 353.28749802 -262.05898282 350.57593296 -262.89453125 347.8671875 C-283.26263242 280.51450236 -273.55954114 206.1870054 -241.23828125 144.39453125 C-230.94043988 125.19387132 -218.13526127 107.75609203 -203.8125 91.375 C-202.94882812 90.38628906 -202.08515625 89.39757812 -201.1953125 88.37890625 C-189.88932389 75.747735 -177.41048179 64.48400215 -163.8125 54.375 C-163.18714355 53.90384766 -162.56178711 53.43269531 -161.91748047 52.94726562 C-128.8920598 28.20503998 -90.28308885 11.80218765 -49.8125 4.1875 C-48.99563721 4.03240967 -48.17877441 3.87731934 -47.3371582 3.7175293 C-31.6468216 0.93329492 -15.9133071 -0.03738843 0 0 Z " fill="#D3497A" transform="translate(750.8125,459.625)"/>
<path d="M0 0 C3.60573619 0.57460353 6.29842515 1.5180002 9.45703125 3.3359375 C10.73586182 4.05849731 10.73586182 4.05849731 12.04052734 4.7956543 C12.95527832 5.31683838 13.8700293 5.83802246 14.8125 6.375 C45.63602464 23.51374319 78.76485344 35.69754419 113 44 C113.82338867 44.2047998 114.64677734 44.40959961 115.49511719 44.62060547 C146.33533047 52.15710169 177.65400587 54.47264183 209.3125 54.4375 C210.53781433 54.43763092 211.76312866 54.43776184 213.02557373 54.43789673 C234.41265835 54.3967905 255.19361527 52.61577353 276.3125 49.375 C277.85473996 49.14271241 279.39705776 48.91094095 280.93945312 48.6796875 C284.62720914 48.12567576 288.3138953 47.56490789 292 47 C294.20337256 51.26390945 296.27383877 55.42088762 297.75 60 C309.39408666 92.61236533 332.35937047 124.57352201 357.40234375 148.25 C358.23995239 149.05062866 358.23995239 149.05062866 359.09448242 149.86743164 C360.17656638 150.89366404 361.27144185 151.90661804 362.38012695 152.90405273 C365.96094005 156.30402265 365.96094005 156.30402265 366.12890625 159.296875 C364.44799203 163.32176302 362.39094484 167.05152579 360.1875 170.8125 C359.69975098 171.64837646 359.21200195 172.48425293 358.70947266 173.34545898 C351.94548304 184.70814322 344.02767727 195.15542117 335.015625 204.83203125 C333.09090389 206.90222547 331.26252513 209.02953109 329.4375 211.1875 C325.92302231 215.19607659 322.11182418 218.61455485 318 222 C317.21061035 222.65790527 317.21061035 222.65790527 316.40527344 223.32910156 C274.52059732 258.13598916 222.10263281 275.10348524 167.6875 270.25 C143.65276101 267.86187676 120.70264851 261.59794803 99 251 C98.2874707 250.65598145 97.57494141 250.31196289 96.84082031 249.95751953 C78.44191646 240.97580611 61.15936855 228.83541267 47 214 C46.195625 213.195625 45.39125 212.39125 44.5625 211.5625 C43.716875 210.716875 42.87125 209.87125 42 209 C41.14148438 208.19369141 41.14148438 208.19369141 40.265625 207.37109375 C6.28972822 174.82218464 -11.72687105 124.42669256 -13.22265625 78.125 C-13.76319122 51.59478945 -10.47931425 24.56287244 0 0 Z " fill="#9F2ADF" transform="translate(202,779)"/>
<path d="M0 0 C-0.15146484 0.93231445 -0.30292969 1.86462891 -0.45898438 2.82519531 C-5.24483389 32.76101756 -7.54049751 62.84844692 -3 93 C-2.86045898 93.9472998 -2.72091797 94.89459961 -2.57714844 95.87060547 C-0.10281349 112.34778501 3.06404182 128.48213811 8.16796875 144.36328125 C8.86292045 146.56559298 9.47162597 148.75307611 10 151 C2.38984174 152.99078352 -5.22092235 154.43701332 -13 155.5625 C-13.7736792 155.67698486 -14.5473584 155.79146973 -15.34448242 155.90942383 C-18.2259922 156.31162091 -21.11023558 156.66163425 -24 157 C-24.69034332 157.08265106 -25.38068665 157.16530212 -26.09194946 157.25045776 C-41.61722222 159.06362981 -57.0663249 159.44263103 -72.6875 159.4375 C-74.58511078 159.43810425 -74.58511078 159.43810425 -76.52105713 159.4387207 C-146.85142828 159.31057212 -222.7949622 142.4700252 -282 103 C-270.57893125 77.83795791 -257.10733805 56.14120203 -238 36 C-237.52014648 35.49146484 -237.04029297 34.98292969 -236.54589844 34.45898438 C-229.26765684 26.79614004 -221.59610191 20.14255363 -213 14 C-212.45069824 13.60103516 -211.90139648 13.20207031 -211.33544922 12.79101562 C-154.02706665 -28.50693108 -61.5121999 -41.00813327 0 0 Z " fill="#206FC9" transform="translate(484,675)"/>
<path d="M0 0 C5.67752201 0.61584691 9.72379063 1.64454939 15 4 C16.95212582 4.48394751 18.90451201 4.96692767 20.859375 5.43969727 C24.23990592 6.32454198 27.48479171 7.51257685 30.75 8.75 C31.44029297 9.00950439 32.13058594 9.26900879 32.84179688 9.53637695 C38.19192258 11.59216647 43.27426678 14.02902411 48.359375 16.67578125 C51.8270145 18.41473064 55.33707536 19.73206455 59 21 C59 21.66 59 22.32 59 23 C59.94875 23.20625 60.8975 23.4125 61.875 23.625 C70.4863905 26.14873425 77.90995627 32.2197089 85.3125 37.125 C86.08956299 37.63981934 86.86662598 38.15463867 87.66723633 38.68505859 C91.58652461 41.30582579 95.37477607 43.97536207 99 47 C98.55011719 47.37769531 98.10023438 47.75539063 97.63671875 48.14453125 C93.40718847 51.76378862 89.41492963 55.54138915 85.5 59.5 C81.15871444 63.88030339 76.75388658 68.06905513 72 72 C71.49549316 72.41830078 70.99098633 72.83660156 70.47119141 73.26757812 C43.49173292 95.53240527 13.72127695 113.48748783 -19 126 C-19.6712793 126.26071289 -20.34255859 126.52142578 -21.03417969 126.79003906 C-32.42883033 131.19038989 -32.42883033 131.19038989 -36 130 C-35.54729736 128.95996826 -35.54729736 128.95996826 -35.08544922 127.89892578 C-29.10505064 114.10730131 -23.2490965 100.42856929 -19 86 C-18.6302002 84.75524902 -18.26040039 83.51049805 -17.87939453 82.22802734 C-9.87472307 55.13010587 -4.062826 27.97647728 0 0 Z " fill="#F55C43" transform="translate(817,468)"/>
</svg>
