<?xml version="1.0" encoding="UTF-8"?>
<svg version="1.1" xmlns="http://www.w3.org/2000/svg" width="512" height="512">
<path d="M0 0 C168.96 0 337.92 0 512 0 C512 168.96 512 337.92 512 512 C343.04 512 174.08 512 0 512 C0 343.04 0 174.08 0 0 Z " fill="#FEFEFE" transform="translate(0,0)"/>
<path d="M0 0 C1.06261677 -0.00623996 2.12523354 -0.01247993 3.22005081 -0.01890898 C6.7807153 -0.03486375 10.34069761 -0.02222439 13.90136719 -0.00964355 C16.45406494 -0.01506354 19.00675956 -0.02218549 21.55944824 -0.03088379 C27.77310765 -0.04723905 33.98651443 -0.04483245 40.20017719 -0.03323323 C45.25053302 -0.02419623 50.30083469 -0.02297604 55.35119629 -0.02732849 C56.07024493 -0.02794142 56.78929358 -0.02855436 57.53013158 -0.02918586 C58.990908 -0.03046477 60.45168441 -0.03176163 61.9124608 -0.03307623 C75.60717019 -0.04447985 89.30177244 -0.03137177 102.99646425 -0.00987476 C114.7447668 0.00799605 126.49291125 0.00489188 138.24121094 -0.0135498 C151.88722206 -0.03496039 165.53313931 -0.04338124 179.17916489 -0.03110075 C180.63453927 -0.02982657 182.08991367 -0.02856908 183.54528809 -0.02732849 C184.61936979 -0.02640284 184.61936979 -0.02640284 185.71515012 -0.02545848 C190.75889418 -0.02200614 195.80257865 -0.02783142 200.84631348 -0.0372467 C207.63598883 -0.04964269 214.42531947 -0.04080547 221.21498108 -0.01766968 C223.70869958 -0.01237492 226.20244318 -0.01390937 228.69615173 -0.02272034 C232.0966037 -0.03362849 235.49609391 -0.01996798 238.89648438 0 C239.88656116 -0.00892289 240.87663795 -0.01784577 241.89671707 -0.02703905 C249.19972647 0.05631274 252.85821933 1.96328438 258.12402344 7.13684082 C258.99414062 8.10492676 259.86425781 9.0730127 260.76074219 10.07043457 C261.47447998 10.86151611 261.47447998 10.86151611 262.20263672 11.6685791 C265.17823611 14.99436605 268.02565874 18.40527559 270.82324219 21.88293457 C275.43395858 27.61315944 280.42580857 32.93878535 285.45214844 38.30090332 C289.82940933 42.97186777 293.99967108 47.80540998 298.14746094 52.67980957 C299.16405975 53.87279772 300.18099806 55.06549663 301.19824219 56.25793457 C301.97047119 57.16346069 301.97047119 57.16346069 302.75830078 58.08728027 C306.58103619 62.54832802 310.52170514 66.88226792 314.52026367 71.1854248 C317.39792783 74.30319617 320.11195951 77.5070127 322.76074219 80.82043457 C327.01933365 86.11882575 331.62559045 91.02390306 336.29296875 95.95812988 C340.45306594 100.37893549 344.32143401 104.95329416 348.10839844 109.69934082 C350.93341903 113.09030877 353.92324638 116.29585241 356.94824219 119.50793457 C361.55102941 124.39571593 365.87185015 129.40572792 370.06152344 134.65637207 C372.41803681 137.47184631 374.87626728 140.13779556 377.40063477 142.8013916 C391.6644271 157.85795135 391.6644271 157.85795135 392.19824219 166.50793457 C391.51333957 177.82309661 382.17624926 185.26760204 374.80810547 193.05969238 C370.97672306 197.14008026 367.37143913 201.42191702 363.74511719 205.68371582 C357.91590531 212.52612513 351.99291688 219.24911118 345.89355469 225.85168457 C341.73319692 230.37092304 337.72138683 235.00972066 333.74121094 239.68762207 C327.91375159 246.52913164 321.99167487 253.25045565 315.89355469 259.85168457 C311.73319692 264.37092304 307.72138683 269.00972066 303.74121094 273.68762207 C298.39605508 279.9623323 292.98908433 286.14447784 287.37841797 292.18322754 C284.48075995 295.32296574 281.74477646 298.54959946 279.07324219 301.88293457 C274.97597183 306.97504575 270.59851372 311.74606116 266.12255859 316.50280762 C263.14460752 319.66880736 260.24864825 322.86918807 257.44824219 326.19543457 C253.99457089 330.18634362 250.63803457 332.43193529 245.44824219 333.50793457 C243.97662305 333.59777407 242.50155741 333.6386982 241.02720261 333.64215565 C240.14287292 333.64661349 239.25854324 333.65107134 238.34741569 333.65566427 C237.38011409 333.6554799 236.4128125 333.65529554 235.41619873 333.65510559 C234.38528681 333.65878228 233.35437489 333.66245897 232.29222322 333.66624707 C228.82697193 333.67728774 225.36175062 333.6811284 221.89648438 333.68493652 C219.4162944 333.69120081 216.93610536 333.69784758 214.45591736 333.70484924 C207.00624129 333.7240767 199.55657318 333.73467676 192.10687959 333.74357703 C188.59731672 333.74796246 185.08775535 333.75332856 181.57819366 333.7585659 C169.90976652 333.77557515 158.24134031 333.79006945 146.57290268 333.79731464 C143.54616037 333.79922448 140.51941806 333.80114482 137.49267578 333.80310059 C136.36427821 333.8038262 136.36427821 333.8038262 135.21308473 333.80456647 C123.02606092 333.81286735 110.83913525 333.83820658 98.6521543 333.87068126 C86.13596971 333.90376096 73.61983499 333.92176416 61.10360646 333.92495888 C54.07780573 333.92712298 47.05214817 333.93585702 40.02639008 333.96142006 C33.41737164 333.9854116 26.80856449 333.98894704 20.19949532 333.97865868 C17.77433224 333.97816243 15.34915661 333.98450878 12.92403221 333.99821472 C9.61178512 334.0158865 6.30046774 334.00884982 2.98822021 333.99568176 C1.55065215 334.01213563 1.55065215 334.01213563 0.08404231 334.0289219 C-5.94431651 333.97110901 -10.5227966 332.94713302 -15.55175781 329.50793457 C-19.48295792 325.36982919 -21.83346356 321.51315736 -21.98925781 315.75793457 C-21.68426295 305.78024539 -14.0521562 299.6391372 -7.59472656 292.79699707 C-4.96406542 289.98954637 -2.51483549 287.07892193 -0.11425781 284.07043457 C4.47136514 278.35719942 9.44569761 273.0559152 14.45214844 267.71496582 C18.82940933 263.04400137 22.99967108 258.21045916 27.14746094 253.33605957 C28.16405975 252.14307142 29.18099806 250.95037252 30.19824219 249.75793457 C30.71306152 249.15425049 31.22788086 248.55056641 31.75830078 247.92858887 C35.5803647 243.46832473 39.52045485 239.13526343 43.51806641 234.8326416 C46.41572443 231.6929034 49.15170791 228.46626969 51.82324219 225.13293457 C56.43395858 219.4027097 61.42580857 214.07708379 66.45214844 208.71496582 C70.82940933 204.04400137 74.99967108 199.21045916 79.14746094 194.33605957 C80.1640631 193.14307428 81.1810007 191.95037476 82.19824219 190.75793457 C82.70871094 190.15932617 83.21917969 189.56071777 83.74511719 188.94396973 C88.10176705 183.85984669 92.60404374 178.92682571 97.17089844 174.03137207 C99.07123672 171.92567991 100.79888807 169.81162261 102.44824219 167.50793457 C98.01829982 157.64847309 88.76624458 149.52428597 81.44433594 141.71496582 C77.06707505 137.04400137 72.89681329 132.21045916 68.74902344 127.33605957 C67.73242463 126.14307142 66.71548631 124.95037252 65.69824219 123.75793457 C65.18342285 123.15425049 64.66860352 122.55056641 64.13818359 121.92858887 C60.75722229 117.98308174 57.29722176 114.12674091 53.76074219 110.32043457 C50.39240772 106.69510249 47.16902199 102.99561064 44.07324219 99.13293457 C39.4625258 93.4027097 34.4706758 88.07708379 29.44433594 82.71496582 C25.06707505 78.04400137 20.89681329 73.21045916 16.74902344 68.33605957 C10.92165869 61.49697319 5.00114476 54.77662019 -1.09472656 48.17590332 C-22.15625551 25.3062304 -22.15625551 25.3062304 -21.93066406 15.10949707 C-21.12605529 9.58506983 -18.26962026 5.96910055 -14.10626221 2.42786407 C-9.70471602 -0.42833039 -5.09224341 -0.04589292 0 0 Z " fill="#3182F1" transform="translate(71.5517578125,89.4920654296875)"/>
<path d="M0 0 C1.41015625 1.3984375 1.41015625 1.3984375 3.0625 3.375 C5.77923786 6.57546345 8.54335219 9.71306063 11.375 12.8125 C14.44746773 16.21083552 17.38442622 19.67590523 20.25 23.25 C24.3495192 28.32423006 28.73370862 33.0623033 33.20214844 37.80761719 C37.22017314 42.0977323 40.94649646 46.55309538 44.61328125 51.1484375 C46.96979462 53.96391174 49.42802509 56.62986099 51.95239258 59.29345703 C66.21618491 74.35001678 66.21618491 74.35001678 66.75 83 C66.06509738 94.31516204 56.72800707 101.75966747 49.35986328 109.55175781 C45.52848087 113.63214569 41.92319694 117.91398245 38.296875 122.17578125 C32.46766312 129.01819056 26.54467469 135.74117661 20.4453125 142.34375 C16.28495473 146.86298847 12.27314465 151.50178609 8.29296875 156.1796875 C2.4655094 163.02119707 -3.45656731 169.74252108 -9.5546875 176.34375 C-13.71504527 180.86298847 -17.72685535 185.50178609 -21.70703125 190.1796875 C-27.0521871 196.45439773 -32.45915786 202.63654327 -38.06982422 208.67529297 C-40.96748224 211.81503117 -43.70346573 215.04166489 -46.375 218.375 C-50.47227035 223.46711118 -54.84972847 228.23812659 -59.32568359 232.99487305 C-62.30363466 236.16087279 -65.19959394 239.3612535 -68 242.6875 C-71.45289648 246.67751371 -74.81026875 248.92641681 -80 250 C-81.47915805 250.08669465 -82.96168976 250.12378134 -84.44338608 250.12304783 C-85.33264935 250.12503888 -86.22191263 250.12702993 -87.13812327 250.12908131 C-88.5972611 250.12471205 -88.5972611 250.12471205 -90.08587646 250.12025452 C-91.64071113 250.12153615 -91.64071113 250.12153615 -93.22695661 250.12284368 C-96.71089213 250.12449481 -100.19477983 250.11898306 -103.67871094 250.11352539 C-106.17188007 250.11324341 -108.6650493 250.11340146 -111.15821838 250.1139679 C-116.53131478 250.11419584 -121.90439621 250.11135378 -127.27748871 250.10573006 C-135.04608515 250.09760438 -142.81467572 250.09499874 -150.58327594 250.09374207 C-163.1871938 250.09155323 -175.79110519 250.08489769 -188.39501953 250.07543945 C-200.63883431 250.06626099 -212.88264732 250.05918228 -225.12646484 250.05493164 C-225.88112383 250.05466892 -226.63578282 250.05440619 -227.41331026 250.05413551 C-231.19919774 250.05283048 -234.98508523 250.05156677 -238.77097273 250.05032361 C-270.18065319 250.03995623 -301.59032561 250.02226816 -333 250 C-333 249.67 -333 249.34 -333 249 C-295.71 249 -258.42 249 -220 249 C-219.34 247.68 -218.68 246.36 -218 245 C-216.17978974 242.92990128 -214.34174528 240.92657476 -212.4375 238.9375 C-208.65597402 234.92163546 -205.00641818 230.87699973 -201.5625 226.5625 C-196.98085598 220.85422221 -192.01197564 215.55703962 -187.0078125 210.22265625 C-184.15453222 207.17862987 -181.38811991 204.07033123 -178.6640625 200.91015625 C-176.68459874 198.63795489 -174.6541683 196.41540128 -172.625 194.1875 C-169.55253227 190.78916448 -166.61557378 187.32409477 -163.75 183.75 C-159.08941135 177.98558772 -154.06220719 172.61148047 -148.99609375 167.20703125 C-144.61883286 162.5360668 -140.4485711 157.70252459 -136.30078125 152.828125 C-135.28418244 151.63513685 -134.26724412 150.44243795 -133.25 149.25 C-132.73518066 148.64631592 -132.22036133 148.04263184 -131.68994141 147.4206543 C-127.86787748 142.96039016 -123.92778734 138.62732886 -119.93017578 134.32470703 C-117.03251776 131.18496883 -114.29653427 127.95833511 -111.625 124.625 C-107.57269287 119.58503378 -103.22514288 114.89373256 -98.79516602 110.18969727 C-95.57245475 106.74891133 -92.50505794 103.25028677 -89.5625 99.5625 C-85.35289665 94.29855768 -80.78257706 89.44162354 -76.15478516 84.54931641 C-71.99814015 80.13210895 -68.13317896 75.56106057 -64.34765625 70.8203125 C-60.4233519 66.10592358 -56.18973138 61.68094284 -51.99609375 57.20703125 C-47.61883286 52.5360668 -43.4485711 47.70252459 -39.30078125 42.828125 C-38.28418244 41.63513685 -37.26724412 40.44243795 -36.25 39.25 C-35.73518066 38.64631592 -35.22036133 38.04263184 -34.68994141 37.4206543 C-31.30897485 33.47514104 -27.84886376 29.61892017 -24.3125 25.8125 C-20.05986693 21.23279955 -16.068448 16.48532774 -12.140625 11.625 C-9.98710403 8.98418596 -7.79726943 6.38489647 -5.5625 3.8125 C-4.92441406 3.07644531 -4.28632813 2.34039062 -3.62890625 1.58203125 C-2 0 -2 0 0 0 Z " fill="#6CB8FC" transform="translate(397,173)"/>
<path d="M0 0 C1.06276661 -0.0034177 2.12553322 -0.0068354 3.22050488 -0.01035666 C6.78140245 -0.01694488 10.34154615 0.00505714 13.90237427 0.0269165 C16.45495079 0.02804477 19.00752861 0.02741153 21.56010437 0.02514648 C27.05548568 0.02423563 32.55062426 0.0355803 38.04595566 0.05809784 C45.99118475 0.0906328 53.93632204 0.10102637 61.88161053 0.10604981 C74.77286124 0.11480012 87.6640106 0.14140853 100.5552063 0.17926025 C113.07636 0.21598717 125.59748616 0.24429559 138.11868286 0.2612915 C138.89073838 0.2623424 139.66279389 0.26339329 140.45824502 0.26447603 C144.3314955 0.26969625 148.20474617 0.27475107 152.07799697 0.27972364 C184.20068207 0.32117748 216.3232426 0.39161871 248.4458313 0.48101807 C247.19754056 3.73026279 246.15903665 6.14049302 243.72317505 8.64508057 C243.18950317 9.20388916 242.6558313 9.76269775 242.10598755 10.33843994 C241.25327271 11.21339111 241.25327271 11.21339111 240.3833313 12.10601807 C236.40333153 16.2823994 232.54415415 20.46468734 228.9458313 24.98101807 C224.38541204 30.67733511 219.42848466 35.95420872 214.44192505 41.27398682 C210.06466416 45.94495127 205.8944024 50.77849347 201.74661255 55.65289307 C200.73001374 56.84588121 199.71307542 58.03858012 198.6958313 59.23101807 C198.18101196 59.83470215 197.66619263 60.43838623 197.13577271 61.06036377 C193.31370878 65.52062791 189.37361863 69.8536892 185.37600708 74.15631104 C182.47834906 77.29604924 179.74236557 80.52268295 177.0708313 83.85601807 C172.46011491 89.58624293 167.46826491 94.91186885 162.44192505 100.27398682 C158.06466416 104.94495127 153.8944024 109.77849347 149.74661255 114.65289307 C143.91564917 121.49620286 137.99174795 128.22085024 131.8911438 134.82476807 C125.03690427 142.27026787 118.53128255 150.03098184 111.95315552 157.7197876 C109.4524734 160.64170545 106.94912583 163.56133834 104.4458313 166.48101807 C95.39829484 157.5355215 86.7338366 148.2453191 78.79348755 138.30133057 C74.8691832 133.58694165 70.63556268 129.16196091 66.44192505 124.68804932 C62.06466416 120.01708486 57.8944024 115.18354266 53.74661255 110.30914307 C52.73001374 109.11615492 51.71307542 107.92345601 50.6958313 106.73101807 C50.18101196 106.12733398 49.66619263 105.5236499 49.13577271 104.90167236 C45.7548114 100.95616524 42.29481087 97.09982441 38.7583313 93.29351807 C35.38999683 89.66818599 32.1666111 85.96869414 29.0708313 82.10601807 C24.46011491 76.3757932 19.46826491 71.05016728 14.44192505 65.68804932 C10.06466416 61.01708486 5.8944024 56.18354266 1.74661255 51.30914307 C0.729847 50.11629702 -0.28708534 48.92359314 -1.3041687 47.73101807 C-1.81463745 47.13095947 -2.3251062 46.53090088 -2.8510437 45.91265869 C-5.40292805 42.92906459 -7.98466103 39.98848674 -10.66744995 37.12164307 C-11.16341675 36.59151611 -11.65938354 36.06138916 -12.17037964 35.51519775 C-13.5324608 34.07034326 -14.90433338 32.63473723 -16.27682495 31.19976807 C-20.60914145 26.02774013 -22.18844896 21.65884038 -21.9682312 15.01226807 C-21.07205432 9.5337528 -18.25401894 5.92812188 -14.10882378 2.39926529 C-9.70496801 -0.45833578 -5.093183 -0.0599251 0 0 Z " fill="#0F4AC7" transform="translate(71.55416870117188,89.51898193359375)"/>
</svg>
