<?xml version="1.0" encoding="UTF-8"?>
<svg version="1.1" xmlns="http://www.w3.org/2000/svg" width="840" height="613">
<path d="M0 0 C117.48 0 234.96 0 356 0 C356.020625 58.554375 356.04125 117.10875 356.0625 177.4375 C356.071604 195.96189209 356.08070801 214.48628418 356.09008789 233.57202148 C356.09460449 256.10168457 356.09460449 256.10168457 356.09544373 266.63124084 C356.09637963 274.0237001 356.10006193 281.41615188 356.10557556 288.80860901 C356.11191675 297.32313763 356.11484164 305.83765902 356.11344495 314.35219002 C356.11283949 318.71274723 356.11383518 323.07328826 356.11921513 327.43384254 C356.12404128 331.3692098 356.12434985 335.30454929 356.12090111 339.23991776 C356.12047358 340.66988623 356.12177153 342.09985636 356.12488258 343.52982152 C356.12884685 345.46413891 356.126156 347.39846664 356.12304783 349.33278561 C356.12361741 350.94982463 356.12361741 350.94982463 356.1241985 352.59953111 C356 355 356 355 355 356 C353.57736316 356.09338629 352.15010423 356.11745136 350.72441101 356.11352539 C349.80114014 356.1134549 348.87786926 356.1133844 347.92662048 356.11331177 C346.9050032 356.10814545 345.88338593 356.10297913 344.83081055 356.09765625 C343.7606369 356.09619598 342.69046326 356.09473572 341.58786011 356.0932312 C339.25138073 356.08941225 336.91490429 356.08328227 334.5784359 356.07516479 C330.86371154 356.06242107 327.14902289 356.05588858 323.4342804 356.05102539 C314.18867115 356.03763359 304.94309578 356.01366719 295.69750977 355.98962402 C287.91673272 355.96974088 280.13596921 355.95415073 272.35517311 355.94406128 C268.72639684 355.93765824 265.09767635 355.92514001 261.46891785 355.91235352 C259.18850755 355.9087121 256.90809676 355.90536152 254.62768555 355.90234375 C253.64452866 355.89717743 252.66137177 355.89201111 251.64842224 355.88668823 C245.28130283 355.88622874 238.95615332 356.14760845 232.60139465 356.50219727 C221.64726023 357.10099174 210.71741992 357.11323963 199.75 357.0625 C197.81770952 357.05746461 195.88541774 357.05290538 193.953125 357.04882812 C189.30205008 357.03800776 184.65104027 357.020861 180 357 C180.00138269 358.35147204 180.00138269 358.35147204 180.00279331 359.73024654 C180.02484625 381.620058 180.04141043 403.50986755 180.05181217 425.39968777 C180.05697565 435.98529394 180.06401933 446.57089272 180.07543945 457.15649414 C180.08538471 466.37937759 180.09185305 475.60225569 180.09408849 484.82514435 C180.09539587 489.71176412 180.09848342 494.59836857 180.10573006 499.48498344 C180.11248778 504.07887461 180.11461747 508.67274405 180.11310768 513.26663971 C180.11338412 514.95779348 180.11539071 516.64894794 180.11920547 518.34009743 C180.12413887 520.63878176 180.12299962 522.9373827 180.12025452 525.23606873 C180.12163721 527.1704513 180.12163721 527.1704513 180.12304783 529.14391232 C180 532 180 532 179 533 C177.01009136 533.12448779 175.01571276 533.17748422 173.02209473 533.20433044 C171.70478363 533.2240711 170.38747253 533.24381176 169.03024292 533.26415062 C167.53904491 533.28108104 166.04784399 533.29775698 164.55664062 533.31420898 C162.97221572 533.33483861 161.38779399 533.35571308 159.80337524 533.37681007 C155.36996123 533.43368687 150.93649041 533.48239395 146.50295448 533.52869725 C143.63590303 533.55880744 140.76887226 533.59050477 137.90184021 533.6224041 C80.37031078 534.25133923 22.83332564 534.11509374 -34.70075035 534.07202756 C-45.5778435 534.06397627 -56.45493576 534.05859707 -67.33203125 534.05493164 C-68.49812397 534.05453756 -68.49812397 534.05453756 -69.68777412 534.05413551 C-73.59168938 534.05282951 -77.49560464 534.05156603 -81.39951992 534.05032361 C-113.26635153 534.04012794 -145.13317468 534.02259443 -177 534 C-178.02831158 525.89501578 -178.14583284 517.87546392 -178.14044189 509.71337891 C-178.14303027 508.28311681 -178.14604473 506.85285542 -178.1494453 505.42259502 C-178.15746159 501.5155031 -178.15930182 497.6084296 -178.16004276 493.70133042 C-178.16190246 489.4792013 -178.16945379 485.25708154 -178.17617798 481.03495789 C-178.18971813 471.81876885 -178.19577773 462.60258419 -178.20018864 453.38638687 C-178.20295535 447.63302773 -178.20719318 441.87967026 -178.21169281 436.12631226 C-178.22387407 420.1958985 -178.23417937 404.26548606 -178.2375679 388.33506775 C-178.23778747 387.3170962 -178.23800703 386.29912465 -178.23823325 385.25030547 C-178.23845153 384.22994034 -178.23866981 383.2095752 -178.2388947 382.15828991 C-178.23933817 380.09071541 -178.23978473 378.02314091 -178.24023438 375.95556641 C-178.2404558 374.92998395 -178.24067723 373.90440149 -178.24090537 372.84774077 C-178.24486134 356.19516863 -178.26234473 339.54264003 -178.2855939 322.89008474 C-178.3092719 305.79266914 -178.32176793 288.69527545 -178.32293582 271.59784317 C-178.32385397 261.99800488 -178.32964238 252.39822353 -178.34775543 242.79840088 C-178.3631077 234.6333439 -178.36830543 226.46836147 -178.36001733 218.30329281 C-178.356095 214.13492084 -178.35711731 209.96669928 -178.37107468 205.79834557 C-178.38371777 201.98791378 -178.38270173 198.17774692 -178.37048396 194.36731601 C-178.36851032 192.98400591 -178.37168134 191.60067764 -178.38032833 190.21739316 C-178.39128649 188.34701058 -178.38221163 186.47654185 -178.3719368 184.6061554 C-178.37253389 183.56430745 -178.37313097 182.52245951 -178.37374616 181.44904041 C-178.25040992 180.64085708 -178.12707369 179.83267374 -178 179 C-174.29359919 176.52906613 -172.45949981 176.75311807 -168.03352356 176.75949097 C-166.96645172 176.75692291 -166.96645172 176.75692291 -165.87782288 176.75430298 C-163.48070332 176.75098609 -161.0838617 176.76205 -158.68676758 176.77294922 C-156.94426069 176.77356171 -155.2017533 176.77329521 -153.45924664 176.7722187 C-148.78524581 176.77176646 -144.11134701 176.78337334 -139.4373703 176.79743958 C-135.05439424 176.80881419 -130.67144323 176.80936498 -126.28845215 176.81079102 C-113.46312121 176.82129323 -100.63780932 176.84921544 -87.8125 176.875 C-44.8403125 176.936875 -44.8403125 176.936875 -1 177 C-0.67 118.59 -0.34 60.18 0 0 Z " fill="#019CD7" transform="translate(331,40)"/>
<path d="M0 0 C117.48 0 234.96 0 356 0 C356 117.15 356 234.3 356 355 C355.67 355 355.34 355 355 355 C355 238.18 355 121.36 355 1 C238.51 1.33 122.02 1.66 2 2 C1.67 118.49 1.34 234.98 1 355 C80.53 355 160.06 355 242 355 C242 355.33 242 355.66 242 356 C227.9020245 356.84974886 213.87143782 357.12783137 199.75 357.0625 C197.81770952 357.05746461 195.88541774 357.05290538 193.953125 357.04882812 C189.30205008 357.03800776 184.65104027 357.020861 180 357 C180.00138269 358.35147204 180.00138269 358.35147204 180.00279331 359.73024654 C180.02484625 381.620058 180.04141043 403.50986755 180.05181217 425.39968777 C180.05697565 435.98529394 180.06401933 446.57089272 180.07543945 457.15649414 C180.08538471 466.37937759 180.09185305 475.60225569 180.09408849 484.82514435 C180.09539587 489.71176412 180.09848342 494.59836857 180.10573006 499.48498344 C180.11248778 504.07887461 180.11461747 508.67274405 180.11310768 513.26663971 C180.11338412 514.95779348 180.11539071 516.64894794 180.11920547 518.34009743 C180.12413887 520.63878176 180.12299962 522.9373827 180.12025452 525.23606873 C180.12163721 527.1704513 180.12163721 527.1704513 180.12304783 529.14391232 C180 532 180 532 179 533 C177.01009136 533.12448779 175.01571276 533.17748422 173.02209473 533.20433044 C171.70478363 533.2240711 170.38747253 533.24381176 169.03024292 533.26415062 C167.53904491 533.28108104 166.04784399 533.29775698 164.55664062 533.31420898 C162.97221572 533.33483861 161.38779399 533.35571308 159.80337524 533.37681007 C155.36996123 533.43368687 150.93649041 533.48239395 146.50295448 533.52869725 C143.63590303 533.55880744 140.76887226 533.59050477 137.90184021 533.6224041 C80.37031078 534.25133923 22.83332564 534.11509374 -34.70075035 534.07202756 C-45.5778435 534.06397627 -56.45493576 534.05859707 -67.33203125 534.05493164 C-68.49812397 534.05453756 -68.49812397 534.05453756 -69.68777412 534.05413551 C-73.59168938 534.05282951 -77.49560464 534.05156603 -81.39951992 534.05032361 C-113.26635153 534.04012794 -145.13317468 534.02259443 -177 534 C-178.02831158 525.89501578 -178.14583284 517.87546392 -178.14044189 509.71337891 C-178.14303027 508.28311681 -178.14604473 506.85285542 -178.1494453 505.42259502 C-178.15746159 501.5155031 -178.15930182 497.6084296 -178.16004276 493.70133042 C-178.16190246 489.4792013 -178.16945379 485.25708154 -178.17617798 481.03495789 C-178.18971813 471.81876885 -178.19577773 462.60258419 -178.20018864 453.38638687 C-178.20295535 447.63302773 -178.20719318 441.87967026 -178.21169281 436.12631226 C-178.22387407 420.1958985 -178.23417937 404.26548606 -178.2375679 388.33506775 C-178.23778747 387.3170962 -178.23800703 386.29912465 -178.23823325 385.25030547 C-178.23845153 384.22994034 -178.23866981 383.2095752 -178.2388947 382.15828991 C-178.23933817 380.09071541 -178.23978473 378.02314091 -178.24023438 375.95556641 C-178.2404558 374.92998395 -178.24067723 373.90440149 -178.24090537 372.84774077 C-178.24486134 356.19516863 -178.26234473 339.54264003 -178.2855939 322.89008474 C-178.3092719 305.79266914 -178.32176793 288.69527545 -178.32293582 271.59784317 C-178.32385397 261.99800488 -178.32964238 252.39822353 -178.34775543 242.79840088 C-178.3631077 234.6333439 -178.36830543 226.46836147 -178.36001733 218.30329281 C-178.356095 214.13492084 -178.35711731 209.96669928 -178.37107468 205.79834557 C-178.38371777 201.98791378 -178.38270173 198.17774692 -178.37048396 194.36731601 C-178.36851032 192.98400591 -178.37168134 191.60067764 -178.38032833 190.21739316 C-178.39128649 188.34701058 -178.38221163 186.47654185 -178.3719368 184.6061554 C-178.37253389 183.56430745 -178.37313097 182.52245951 -178.37374616 181.44904041 C-178.25040992 180.64085708 -178.12707369 179.83267374 -178 179 C-174.29359919 176.52906613 -172.45949981 176.75311807 -168.03352356 176.75949097 C-166.96645172 176.75692291 -166.96645172 176.75692291 -165.87782288 176.75430298 C-163.48070332 176.75098609 -161.0838617 176.76205 -158.68676758 176.77294922 C-156.94426069 176.77356171 -155.2017533 176.77329521 -153.45924664 176.7722187 C-148.78524581 176.77176646 -144.11134701 176.78337334 -139.4373703 176.79743958 C-135.05439424 176.80881419 -130.67144323 176.80936498 -126.28845215 176.81079102 C-113.46312121 176.82129323 -100.63780932 176.84921544 -87.8125 176.875 C-44.8403125 176.936875 -44.8403125 176.936875 -1 177 C-0.67 118.59 -0.34 60.18 0 0 Z " fill="#96DFF3" transform="translate(331,40)"/>
<path d="M0 0 C116.49 0 232.98 0 353 0 C353 117.15 353 234.3 353 355 C316.37 355 279.74 355 242 355 C242 354.67 242 354.34 242 354 C246.29 353.67 250.58 353.34 255 353 C228.93 352.67 202.86 352.34 176 352 C176 294.25 176 236.5 176 177 C234.08 177 292.16 177 352 177 C352 118.92 352 60.84 352 1 C235.84 1 119.68 1 0 1 C0 0.67 0 0.34 0 0 Z " fill="#00B0E1" transform="translate(333,41)"/>
<path d="M0 0 C58.41 0 116.82 0 177 0 C177 58.41 177 116.82 177 177 C118.59 177 60.18 177 0 177 C0 118.59 0 60.18 0 0 Z " fill="#1980E0" transform="translate(155,395)"/>
<path d="M0 0 C58.08 0 116.16 0 176 0 C176 58.08 176 116.16 176 176 C117.92 176 59.84 176 0 176 C0 117.92 0 59.84 0 0 Z " fill="#1980E0" transform="translate(509,42)"/>
<path d="M0 0 C28.689375 -0.020625 57.37875 -0.04125 86.9375 -0.0625 C100.54987915 -0.07615601 100.54987915 -0.07615601 114.43725586 -0.09008789 C125.47766113 -0.09460449 125.47766113 -0.09460449 130.63819885 -0.09544373 C134.25982774 -0.09637931 137.88144213 -0.10014231 141.50306702 -0.10557556 C146.11363177 -0.11240151 150.72417523 -0.11449734 155.33474457 -0.11307228 C157.03247004 -0.11337055 158.73019621 -0.11537296 160.42791736 -0.11921513 C162.70998328 -0.12414242 164.991965 -0.1230072 167.27403259 -0.12025452 C169.19735365 -0.12163721 169.19735365 -0.12163721 171.15952969 -0.12304783 C174 0 174 0 175 1 C175.09704641 3.24024643 175.12186656 5.48362054 175.12025452 7.72596741 C175.12153854 8.79047119 175.12153854 8.79047119 175.12284851 9.8764801 C175.1245135 12.27973889 175.11896427 14.68292914 175.11352539 17.08618164 C175.11321929 18.82844509 175.11335214 20.57070867 175.11389065 22.31297207 C175.1141172 26.99534826 175.10830482 31.67769909 175.10128021 36.36006927 C175.09560187 40.74749332 175.095318 45.13491108 175.09460449 49.52233887 C175.08934893 62.36906263 175.07538789 75.21578163 175.0625 88.0625 C175.041875 116.751875 175.02125 145.44125 175 175 C117.25 175 59.5 175 0 175 C0 117.25 0 59.5 0 0 Z " fill="#00B1E1" transform="translate(333,43)"/>
<path d="M0 0 C117.48 0 234.96 0 356 0 C356 117.15 356 234.3 356 355 C355.67 355 355.34 355 355 355 C355 238.18 355 121.36 355 1 C238.51 1.33 122.02 1.66 2 2 C1.67 59.75 1.34 117.5 1 177 C-0.8921575 178.8921575 -4.20667789 178.14138003 -6.71923828 178.15148926 C-7.42992525 178.15572167 -8.14061222 178.15995408 -8.87283516 178.16431475 C-11.27199626 178.17740843 -13.67112409 178.18338093 -16.0703125 178.18945312 C-17.7831035 178.19739013 -19.49589245 178.20577764 -21.2086792 178.21458435 C-24.90553195 178.23267977 -28.60238011 178.24768152 -32.29925537 178.26036072 C-38.13849776 178.28052409 -43.9776895 178.30818371 -49.81689453 178.33703613 C-63.26664555 178.40233485 -76.71643416 178.4577015 -90.16622925 178.51302338 C-102.48912323 178.56381155 -114.81199889 178.61665977 -127.13484764 178.67754889 C-132.94593228 178.70597484 -138.75701078 178.72954314 -144.56813049 178.74947357 C-148.17588235 178.76281968 -151.78360604 178.78023424 -155.39133453 178.79878426 C-157.07119284 178.80656865 -158.75106013 178.81262572 -160.43093109 178.81687737 C-162.71425644 178.82288448 -164.9974709 178.83491288 -167.28076172 178.84851074 C-169.20213455 178.85624134 -169.20213455 178.85624134 -171.162323 178.86412811 C-173.90062596 178.67646626 -173.90062596 178.67646626 -175 180 C-175.10263588 181.87121152 -175.13400512 183.74634388 -175.1386652 185.62036228 C-175.14413964 186.84850857 -175.14961409 188.07665486 -175.15525442 189.34201771 C-175.15633083 190.72252366 -175.15731548 192.10302969 -175.15821838 193.48353577 C-175.16277998 194.93632995 -175.1677794 196.38912282 -175.17318195 197.84191412 C-175.18681839 201.85300586 -175.19419725 205.86408909 -175.20060861 209.87519801 C-175.20858849 214.19356773 -175.2222945 218.51191958 -175.23532104 222.83027649 C-175.25711816 230.31841029 -175.27525076 237.80654588 -175.29092598 245.2946949 C-175.31359524 256.12143069 -175.34174208 266.94814673 -175.37124526 277.7748658 C-175.41895736 295.33858998 -175.4622117 312.90232221 -175.50268555 330.46606445 C-175.54202209 347.53215157 -175.58344387 364.59823151 -175.62768555 381.66430664 C-175.63040982 382.71546636 -175.63313409 383.76662608 -175.63594092 384.84963913 C-175.64962009 390.12276166 -175.66334042 395.39588409 -175.67708123 400.66900647 C-175.79110283 444.44598937 -175.89789957 488.22298778 -176 532 C-175.13013441 531.99435183 -174.26026881 531.98870367 -173.36404365 531.98288435 C-82.33401609 531.39219047 -82.33401609 531.39219047 -49.25390625 531.22265625 C-48.24858833 531.21747522 -47.2432704 531.21229418 -46.2074883 531.20695615 C2.73661936 530.95629981 51.68034061 530.91544222 100.625 530.9375 C101.59488688 530.93792423 102.56477376 530.93834846 103.56405115 530.93878555 C128.04271087 530.94967794 152.52135694 530.96941785 177 531 C176.99861731 529.71093829 176.99861731 529.71093829 176.99720669 528.39583492 C176.97511731 507.48030744 176.95857177 486.56478196 176.94818783 465.64924526 C176.9430327 455.53463255 176.93600489 445.42002763 176.92456055 435.30541992 C176.91458982 426.48899854 176.90814087 417.6725828 176.90591151 408.85615593 C176.90460847 404.18843866 176.90154828 399.52073753 176.89426994 394.85302544 C176.88747206 390.45774305 176.88539072 386.06248342 176.88689232 381.66719627 C176.88661769 380.05596544 176.88463495 378.44473382 176.88079453 376.83350754 C176.87579839 374.62888108 176.87702346 372.42433985 176.87974548 370.2197113 C176.87836279 368.37105547 176.87836279 368.37105547 176.87695217 366.48505306 C177.21959721 356.78040279 177.21959721 356.78040279 179 355 C180.96369153 354.9059933 182.93079199 354.88256619 184.89672852 354.88647461 C186.15796036 354.88655014 187.4191922 354.88662567 188.71864319 354.88670349 C190.10539794 354.8918109 191.49215229 354.89702691 192.87890625 354.90234375 C194.28995209 354.90420799 195.70099857 354.90563186 197.11204529 354.90663147 C200.83240535 354.91045621 204.5527266 354.9202861 208.27307129 354.93133545 C212.06680781 354.94155052 215.86055058 354.94612929 219.65429688 354.95117188 C227.10288231 354.96190842 234.55143572 354.9789843 242 355 C242 355.33 242 355.66 242 356 C227.9020245 356.84974886 213.87143782 357.12783137 199.75 357.0625 C197.81770952 357.05746461 195.88541774 357.05290538 193.953125 357.04882812 C189.30205008 357.03800776 184.65104027 357.020861 180 357 C180.00138269 358.35147204 180.00138269 358.35147204 180.00279331 359.73024654 C180.02484625 381.620058 180.04141043 403.50986755 180.05181217 425.39968777 C180.05697565 435.98529394 180.06401933 446.57089272 180.07543945 457.15649414 C180.08538471 466.37937759 180.09185305 475.60225569 180.09408849 484.82514435 C180.09539587 489.71176412 180.09848342 494.59836857 180.10573006 499.48498344 C180.11248778 504.07887461 180.11461747 508.67274405 180.11310768 513.26663971 C180.11338412 514.95779348 180.11539071 516.64894794 180.11920547 518.34009743 C180.12413887 520.63878176 180.12299962 522.9373827 180.12025452 525.23606873 C180.12163721 527.1704513 180.12163721 527.1704513 180.12304783 529.14391232 C180 532 180 532 179 533 C177.01009136 533.12448779 175.01571276 533.17748422 173.02209473 533.20433044 C171.70478363 533.2240711 170.38747253 533.24381176 169.03024292 533.26415062 C167.53904491 533.28108104 166.04784399 533.29775698 164.55664062 533.31420898 C162.97221572 533.33483861 161.38779399 533.35571308 159.80337524 533.37681007 C155.36996123 533.43368687 150.93649041 533.48239395 146.50295448 533.52869725 C143.63590303 533.55880744 140.76887226 533.59050477 137.90184021 533.6224041 C80.37031078 534.25133923 22.83332564 534.11509374 -34.70075035 534.07202756 C-45.5778435 534.06397627 -56.45493576 534.05859707 -67.33203125 534.05493164 C-68.49812397 534.05453756 -68.49812397 534.05453756 -69.68777412 534.05413551 C-73.59168938 534.05282951 -77.49560464 534.05156603 -81.39951992 534.05032361 C-113.26635153 534.04012794 -145.13317468 534.02259443 -177 534 C-178.02831158 525.89501578 -178.14583284 517.87546392 -178.14044189 509.71337891 C-178.14303027 508.28311681 -178.14604473 506.85285542 -178.1494453 505.42259502 C-178.15746159 501.5155031 -178.15930182 497.6084296 -178.16004276 493.70133042 C-178.16190246 489.4792013 -178.16945379 485.25708154 -178.17617798 481.03495789 C-178.18971813 471.81876885 -178.19577773 462.60258419 -178.20018864 453.38638687 C-178.20295535 447.63302773 -178.20719318 441.87967026 -178.21169281 436.12631226 C-178.22387407 420.1958985 -178.23417937 404.26548606 -178.2375679 388.33506775 C-178.23778747 387.3170962 -178.23800703 386.29912465 -178.23823325 385.25030547 C-178.23845153 384.22994034 -178.23866981 383.2095752 -178.2388947 382.15828991 C-178.23933817 380.09071541 -178.23978473 378.02314091 -178.24023438 375.95556641 C-178.2404558 374.92998395 -178.24067723 373.90440149 -178.24090537 372.84774077 C-178.24486134 356.19516863 -178.26234473 339.54264003 -178.2855939 322.89008474 C-178.3092719 305.79266914 -178.32176793 288.69527545 -178.32293582 271.59784317 C-178.32385397 261.99800488 -178.32964238 252.39822353 -178.34775543 242.79840088 C-178.3631077 234.6333439 -178.36830543 226.46836147 -178.36001733 218.30329281 C-178.356095 214.13492084 -178.35711731 209.96669928 -178.37107468 205.79834557 C-178.38371777 201.98791378 -178.38270173 198.17774692 -178.37048396 194.36731601 C-178.36851032 192.98400591 -178.37168134 191.60067764 -178.38032833 190.21739316 C-178.39128649 188.34701058 -178.38221163 186.47654185 -178.3719368 184.6061554 C-178.37253389 183.56430745 -178.37313097 182.52245951 -178.37374616 181.44904041 C-178.25040992 180.64085708 -178.12707369 179.83267374 -178 179 C-174.29359919 176.52906613 -172.45949981 176.75311807 -168.03352356 176.75949097 C-166.96645172 176.75692291 -166.96645172 176.75692291 -165.87782288 176.75430298 C-163.48070332 176.75098609 -161.0838617 176.76205 -158.68676758 176.77294922 C-156.94426069 176.77356171 -155.2017533 176.77329521 -153.45924664 176.7722187 C-148.78524581 176.77176646 -144.11134701 176.78337334 -139.4373703 176.79743958 C-135.05439424 176.80881419 -130.67144323 176.80936498 -126.28845215 176.81079102 C-113.46312121 176.82129323 -100.63780932 176.84921544 -87.8125 176.875 C-44.8403125 176.936875 -44.8403125 176.936875 -1 177 C-0.67 118.59 -0.34 60.18 0 0 Z " fill="#DFF7FB" transform="translate(331,40)"/>
<path d="M0 0 C1.11696762 0.00222061 2.23393524 0.00444122 3.38475037 0.00672913 C4.64598221 0.00680466 5.90721405 0.00688019 7.20666504 0.00695801 C8.59341979 0.01206542 9.98017414 0.01728142 11.3669281 0.02259827 C12.77797394 0.0244625 14.18902042 0.02588638 15.60006714 0.02688599 C19.3204272 0.03071072 23.04074845 0.04054062 26.76109314 0.05158997 C30.55482966 0.06180504 34.34857243 0.06638381 38.14231873 0.07142639 C45.59090416 0.08216294 53.03945758 0.09923882 60.48802185 0.12025452 C60.48802185 0.45025452 60.48802185 0.78025452 60.48802185 1.12025452 C46.39004635 1.97000338 32.35945967 2.24808589 18.23802185 2.18275452 C16.30573137 2.17771913 14.37343959 2.1731599 12.44114685 2.16908264 C7.79007193 2.15826228 3.13906212 2.14111552 -1.51197815 2.12025452 C-1.51059546 3.47172656 -1.51059546 3.47172656 -1.50918484 4.85050106 C-1.4871319 26.74031252 -1.47056772 48.63012207 -1.46016598 70.51994228 C-1.4550025 81.10554846 -1.44795882 91.69114723 -1.4365387 102.27674866 C-1.42659344 111.49963211 -1.4201251 120.7225102 -1.41788965 129.94539887 C-1.41658228 134.83201864 -1.41349473 139.71862308 -1.40624809 144.60523796 C-1.39949037 149.19912913 -1.39736068 153.79299856 -1.39887047 158.38689423 C-1.39859403 160.078048 -1.39658744 161.76920245 -1.39277267 163.46035194 C-1.38783928 165.75903627 -1.38897853 168.05763721 -1.39172363 170.35632324 C-1.39034094 172.29070582 -1.39034094 172.29070582 -1.38893032 174.26416683 C-1.51197815 177.12025452 -1.51197815 177.12025452 -2.51197815 178.12025452 C-4.50188679 178.2447423 -6.49626539 178.29773874 -8.48988342 178.32458496 C-9.80719452 178.34432562 -11.12450562 178.36406628 -12.48173523 178.38440514 C-13.97293324 178.40133555 -15.46413416 178.4180115 -16.95533752 178.4344635 C-18.53976243 178.45509313 -20.12418416 178.47596759 -21.70860291 178.49706459 C-26.14201692 178.55394138 -30.57548774 178.60264846 -35.00902367 178.64895177 C-37.87607512 178.67906195 -40.74310589 178.71075929 -43.61013794 178.74265862 C-101.14166737 179.37159375 -158.67865251 179.23534826 -216.2127285 179.19228208 C-227.08982165 179.18423079 -237.96691391 179.17885159 -248.8440094 179.17518616 C-250.01010212 179.17479207 -250.01010212 179.17479207 -251.19975227 179.17439003 C-255.10366753 179.17308403 -259.00758279 179.17182055 -262.91149807 179.17057812 C-294.77832968 179.16038246 -326.64515283 179.14284894 -358.51197815 179.12025452 C-358.677946 177.5396012 -358.84163685 175.95870871 -359.0043869 174.37772083 C-359.09579028 173.49738802 -359.18719365 172.6170552 -359.28136683 171.71004564 C-359.60368524 168.09037361 -359.64583798 164.50244914 -359.62721252 160.87098694 C-359.62718735 160.09719759 -359.62716217 159.32340824 -359.62713623 158.52617073 C-359.62531498 155.94681614 -359.61574235 153.36755819 -359.60572815 150.78822327 C-359.60191115 148.91120441 -359.59829611 147.03418513 -359.59486389 145.15716553 C-359.53403743 119.90237719 -359.28229345 94.64812574 -359.04841614 69.39448547 C-358.99279585 63.34715296 -358.93901016 57.29980438 -358.88522053 51.25245535 C-358.76321913 37.54169944 -358.63856696 23.83096879 -358.51197815 10.12025452 C-358.18197815 10.12025452 -357.85197815 10.12025452 -357.51197815 10.12025452 C-357.51197815 65.23025452 -357.51197815 120.34025452 -357.51197815 177.12025452 C-331.75135315 176.95525452 -305.99072815 176.79025452 -279.44947815 176.62025452 C-263.22162576 176.52294862 -246.99380975 176.42607822 -230.7658844 176.34291077 C-229.76056648 176.33772973 -228.75524855 176.3325487 -227.71946645 176.32721066 C-178.77535879 176.07655432 -129.83163754 176.03569673 -80.88697815 176.05775452 C-79.91709127 176.05817875 -78.94720439 176.05860298 -77.947927 176.05904007 C-53.46926728 176.06993245 -28.99062121 176.08967237 -4.51197815 176.12025452 C-4.51336084 174.8311928 -4.51336084 174.8311928 -4.51477146 173.51608944 C-4.53686084 152.60056195 -4.55340638 131.68503648 -4.56379032 110.76949978 C-4.56894545 100.65488707 -4.57597326 90.54028215 -4.5874176 80.42567444 C-4.59738833 71.60925306 -4.60383728 62.79283731 -4.60606664 53.97641045 C-4.60736968 49.30869318 -4.61042987 44.64099205 -4.61770821 39.97327995 C-4.62450609 35.57799757 -4.62658743 31.18273794 -4.62508583 26.78745079 C-4.62536046 25.17621995 -4.6273432 23.56498834 -4.63118362 21.95376205 C-4.63617976 19.7491356 -4.63495469 17.54459437 -4.63223267 15.33996582 C-4.63361536 13.49130999 -4.63361536 13.49130999 -4.63502598 11.60530758 C-4.2324277 0.20261663 -4.2324277 0.20261663 0 0 Z " fill="#C5E7F4" transform="translate(512.5119781494141,394.87974548339844)"/>
<path d="M0 0 C116.49 0 232.98 0 353 0 C353 117.15 353 234.3 353 355 C316.37 355 279.74 355 242 355 C242 354.67 242 354.34 242 354 C278.23241065 351.21289149 314.66252235 352.37851539 351 352 C351.33 236.17 351.66 120.34 352 1 C235.84 1 119.68 1 0 1 C0 0.67 0 0.34 0 0 Z " fill="#68B9E2" transform="translate(333,41)"/>
<path d="M0 0 C0 0.99 0 1.98 0 3 C-36.63 3 -73.26 3 -111 3 C-111 2.67 -111 2.34 -111 2 C-99.27819002 0.82045933 -87.57037157 0.78011371 -75.80078125 0.68359375 C-73.6718052 0.66297972 -71.54283282 0.64198223 -69.41386414 0.62062073 C-63.84993526 0.56582323 -58.28597203 0.51623691 -52.72198486 0.46777344 C-47.03663081 0.41729214 -41.35132666 0.36171898 -35.66601562 0.30664062 C-27.38845069 0.2271043 -19.11087152 0.14957212 -10.83325195 0.07592773 C-9.96319519 0.06814804 -9.09313843 0.06036835 -8.19671631 0.05235291 C-2.24910096 0 -2.24910096 0 0 0 Z " fill="#80CEE3" transform="translate(686,393)"/>
</svg>
