<?xml version="1.0" encoding="UTF-8"?>
<svg version="1.1" xmlns="http://www.w3.org/2000/svg" width="256" height="256">
<path d="M0 0 C5.13608538 3.77855136 10.14091609 7.72162569 15.140625 11.67773438 C16.33145719 12.61206024 17.52282475 13.54570437 18.71484375 14.47851562 C20.97852424 16.25175379 23.23850177 18.02956474 25.49609375 19.81054688 C29.61363645 23.05508425 33.75172548 26.27301324 37.890625 29.49023438 C38.6427124 30.07562988 39.3947998 30.66102539 40.16967773 31.26416016 C44.08373135 34.30911681 48.00474216 37.34446676 51.9375 40.36523438 C68.2296815 52.9031014 68.2296815 52.9031014 75.140625 59.67773438 C75.74261719 60.26683594 76.34460938 60.8559375 76.96484375 61.46289062 C85.44070297 70.47233905 84.58727563 81.75186137 84.5390625 93.30273438 C84.54108705 95.0170911 84.54400166 96.73144698 84.54776001 98.44580078 C84.55216543 102.02645118 84.54581008 105.60687598 84.53173828 109.1875 C84.51464741 113.75686607 84.5244982 118.32570334 84.54245567 122.89505005 C84.5533419 126.43143637 84.54982507 129.96769914 84.5420723 133.50408936 C84.54008364 135.18804997 84.54248219 136.87202212 84.54951096 138.55596924 C84.59155062 151.45603817 83.91724622 160.55150571 74.57421875 170.28320312 C67.94697963 176.80406602 60.89443481 182.44315042 53.43408203 187.96972656 C48.69400401 191.48652313 44.04678704 195.09699323 39.453125 198.80273438 C34.4354708 202.8483278 29.39298952 206.84720734 24.25830078 210.74414062 C21.09030219 213.15384677 17.97540404 215.61519732 14.890625 218.13085938 C-0.4236944 230.52469667 -15.15284954 240.3242938 -35.66015625 238.21289062 C-50.31284292 235.76183071 -61.53267529 226.64077096 -72.859375 217.67773438 C-73.96182184 216.81131715 -75.06468562 215.94543018 -76.16796875 215.08007812 C-78.47176569 213.27234935 -80.77346139 211.46198587 -83.07421875 209.65039062 C-87.24092556 206.37363864 -91.42445345 203.11867193 -95.609375 199.86523438 C-96.36114014 199.28008057 -97.11290527 198.69492676 -97.88745117 198.09204102 C-101.80184832 195.04686357 -105.72316956 192.01124978 -109.65625 188.99023438 C-125.9484315 176.45236735 -125.9484315 176.45236735 -132.859375 169.67773438 C-133.46136719 169.08863281 -134.06335938 168.49953125 -134.68359375 167.89257812 C-143.15945297 158.8831297 -142.30602563 147.60360738 -142.2578125 136.05273438 C-142.25983705 134.33837765 -142.26275166 132.62402177 -142.26651001 130.90966797 C-142.27091543 127.32901757 -142.26456008 123.74859277 -142.25048828 120.16796875 C-142.23339741 115.59860268 -142.2432482 111.02976541 -142.26120567 106.4604187 C-142.2720919 102.92403238 -142.26857507 99.38776961 -142.2608223 95.85137939 C-142.25883364 94.16741878 -142.26123219 92.48344663 -142.26826096 90.79949951 C-142.31028714 77.90356906 -141.63479733 68.81519272 -132.3046875 59.08007812 C-125.78501308 52.67496667 -118.8374743 47.02334381 -111.5625 41.49804688 C-107.40622125 38.34135091 -103.28896445 35.13528066 -99.171875 31.92773438 C-98.41221436 31.33669922 -97.65255371 30.74566406 -96.86987305 30.13671875 C-93.00004394 27.12563359 -89.13305195 24.11097199 -85.26953125 21.09179688 C-81.53665617 18.17625196 -77.79665972 15.27011544 -74.04980469 12.37255859 C-72.59051551 11.24344742 -71.13282807 10.11226307 -69.67675781 8.97900391 C-48.52295751 -7.44996798 -24.37403648 -17.33321712 0 0 Z " fill="#04AAFD" transform="translate(156.859375,13.322265625)"/>
<path d="M0 0 C0.33 0 0.66 0 1 0 C1.06972303 9.3625438 1.12292398 18.72499727 1.15543652 28.08774471 C1.17104635 32.43595026 1.19219831 36.78397726 1.22631836 41.13208008 C1.25907983 45.33367717 1.27688818 49.53510327 1.28463173 53.73681831 C1.29014527 55.33428193 1.30091142 56.93173693 1.31719017 58.52912712 C1.441236 71.21385342 0.61597319 80.04110232 -8.56640625 89.60546875 C-15.19364537 96.12633164 -22.24619019 101.76541605 -29.70654297 107.29199219 C-34.44662099 110.80878875 -39.09383796 114.41925885 -43.6875 118.125 C-48.7051542 122.17059342 -53.74763548 126.16947296 -58.88232422 130.06640625 C-62.05032281 132.47611239 -65.16522096 134.93746295 -68.25 137.453125 C-83.5643194 149.8469623 -98.29347454 159.64655943 -118.80078125 157.53515625 C-133.45346792 155.08409633 -144.67330029 145.96303659 -156 137 C-157.10244684 136.13358277 -158.20531062 135.26769581 -159.30859375 134.40234375 C-161.61239069 132.59461497 -163.91408639 130.78425149 -166.21484375 128.97265625 C-170.38155056 125.69590426 -174.56507845 122.44093756 -178.75 119.1875 C-179.50176514 118.60234619 -180.25353027 118.01719238 -181.02807617 117.41430664 C-184.94247332 114.36912919 -188.86379456 111.33351541 -192.796875 108.3125 C-209.0890565 95.77463297 -209.0890565 95.77463297 -216 89 C-216.60199219 88.41089844 -217.20398438 87.82179688 -217.82421875 87.21484375 C-226.08461138 78.4344264 -225.4100077 67.6936794 -225.29296875 56.37109375 C-225.28736409 54.76970316 -225.28309811 53.16830739 -225.28010559 51.56690979 C-225.2687252 47.37964335 -225.23931786 43.19269581 -225.20599365 39.0055542 C-225.17514484 34.72184562 -225.1615688 30.43808484 -225.14648438 26.15429688 C-225.1144406 17.76938593 -225.06332815 9.38473279 -225 1 C-223.96101386 3.04659351 -222.97791093 5.05581968 -222.1328125 7.19140625 C-216.84457271 19.63311769 -204.62763117 27.20259205 -194.07421875 34.96484375 C-190.13198308 37.8759036 -186.30749499 40.9158034 -182.5 44 C-176.80397696 48.60169845 -171.01203596 53.04963345 -165.13427734 57.41650391 C-160.82839109 60.61740452 -156.57099324 63.87331487 -152.33398438 67.16479492 C-136.61650497 79.33333419 -123.34413158 86.2398041 -103 84 C-91.94284498 81.73597033 -83.6773454 75.81372161 -75 69 C-73.88031935 68.13266916 -72.76052847 67.26548062 -71.640625 66.3984375 C-69.33378035 64.60218426 -67.03870507 62.79195611 -64.75 60.97265625 C-60.6068976 57.6805276 -56.42949546 54.43322581 -52.25 51.1875 C-51.1211438 50.30976929 -51.1211438 50.30976929 -49.96948242 49.41430664 C-46.0620713 46.37649863 -42.15175523 43.34249339 -38.23828125 40.3125 C-30.81747215 34.56229593 -23.40342132 28.81653517 -16.19140625 22.8046875 C-14.89253153 21.73502596 -13.57333164 20.68816798 -12.21484375 19.6953125 C-5.94747114 15.04687757 -1.95881389 7.44349278 0 0 Z " fill="#00CDFE" transform="translate(240,94)"/>
<path d="M0 0 C0.33 0 0.66 0 1 0 C1 15.18 1 30.36 1 46 C0.67 46 0.34 46 0 46 C-0.33 41.38 -0.66 36.76 -1 32 C-2.093125 33.629375 -3.18625 35.25875 -4.3125 36.9375 C-8.37720169 42.49377049 -12.78567463 46.54701687 -18.25830078 50.67919922 C-20.25855797 52.19607494 -22.23709041 53.73905718 -24.21484375 55.28515625 C-27.31125983 57.70462711 -30.41278517 60.11724488 -33.51953125 62.5234375 C-37.35930401 65.49936297 -41.18386469 68.49385647 -45 71.5 C-47.33255451 73.33432577 -49.66605296 75.16744644 -52 77 C-52.69593262 77.5465625 -53.39186523 78.093125 -54.10888672 78.65625 C-96.15789711 111.64019687 -96.15789711 111.64019687 -121 109 C-135.14083388 105.73439389 -146.28558517 95.94076264 -157.2890625 87 C-161.09997106 83.90572288 -164.97827656 80.91100149 -168.87695312 77.92797852 C-175.8912764 72.55803484 -182.85794597 67.12701719 -189.82373047 61.69433594 C-191.84921489 60.11739384 -193.87901123 58.54620217 -195.91015625 56.9765625 C-222.30712851 36.51371136 -222.30712851 36.51371136 -225 23 C-225.59283653 15.68394826 -225.3177589 8.32507587 -225 1 C-223.96101386 3.04659351 -222.97791093 5.05581968 -222.1328125 7.19140625 C-216.84457271 19.63311769 -204.62763117 27.20259205 -194.07421875 34.96484375 C-190.13198308 37.8759036 -186.30749499 40.9158034 -182.5 44 C-176.80397696 48.60169845 -171.01203596 53.04963345 -165.13427734 57.41650391 C-160.82839109 60.61740452 -156.57099324 63.87331487 -152.33398438 67.16479492 C-136.61650497 79.33333419 -123.34413158 86.2398041 -103 84 C-91.94284498 81.73597033 -83.6773454 75.81372161 -75 69 C-73.88031935 68.13266916 -72.76052847 67.26548062 -71.640625 66.3984375 C-69.33378035 64.60218426 -67.03870507 62.79195611 -64.75 60.97265625 C-60.6068976 57.6805276 -56.42949546 54.43322581 -52.25 51.1875 C-51.1211438 50.30976929 -51.1211438 50.30976929 -49.96948242 49.41430664 C-46.0620713 46.37649863 -42.15175523 43.34249339 -38.23828125 40.3125 C-30.81747215 34.56229593 -23.40342132 28.81653517 -16.19140625 22.8046875 C-14.89253153 21.73502596 -13.57333164 20.68816798 -12.21484375 19.6953125 C-5.94747114 15.04687757 -1.95881389 7.44349278 0 0 Z " fill="#0B73FA" transform="translate(240,94)"/>
<path d="M0 0 C2.40329107 2.40329107 2.92439535 4.36846437 4.0625 7.5625 C8.83424548 19.0748487 18.93185572 25.42350117 28.6015625 32.67578125 C32.63389956 35.70487004 36.57859506 38.8292565 40.5 42 C46.49955462 46.83801527 52.58889225 51.54633951 58.7277832 56.20605469 C62.68039537 59.21009406 66.5894191 62.25715992 70.45947266 65.36669922 C86.4764323 78.18841345 100.78283259 87.19521066 122 85 C136.14328847 82.44907604 146.40782768 73.86727098 157.23828125 65.046875 C160.63456195 62.28268228 164.08181502 59.59424699 167.5625 56.9375 C172.54311706 53.12870366 177.48474992 49.27387423 182.40942383 45.39306641 C186.5563736 42.12777859 190.71830447 38.88237037 194.88842773 35.64672852 C197.21268311 33.84148396 199.53216285 32.03022638 201.8515625 30.21875 C204.24340415 28.35352274 206.6463925 26.52216048 209.0859375 24.71875 C214.69945996 20.50429006 218.57084988 15.94940541 222.50390625 10.125 C222.99761719 9.42375 223.49132812 8.7225 224 8 C224.33 8 224.66 8 225 8 C226.16652651 20.99843827 226.10531468 33.95880172 226 47 C225.67 47 225.34 47 225 47 C224.67 42.05 224.34 37.1 224 32 C222.88625 33.8871875 222.88625 33.8871875 221.75 35.8125 C214.72245454 46.27210255 204.10577137 53.58345205 194.0859375 60.95703125 C190.08034157 63.91508297 186.18638961 66.99728576 182.3125 70.125 C176.76830523 74.59554566 171.17399352 78.98111059 165.5078125 83.296875 C162.87006873 85.31460355 160.27092878 87.37604592 157.6796875 89.453125 C141.79369224 102.12502427 128.66829934 110.74775148 107.76953125 109.86328125 C94.49155246 108.19681428 83.93705339 100.69363047 73.82373047 92.47021484 C70.36064644 89.67842207 66.82933356 86.97351185 63.3125 84.25 C61.77176821 83.05125307 60.23140736 81.85202922 58.69140625 80.65234375 C55.57561399 78.22606418 52.45844583 75.80157317 49.33984375 73.37890625 C31.0788551 59.19202847 31.0788551 59.19202847 23.57861328 53.24951172 C22.02281724 52.01806042 20.46260981 50.79218904 18.90234375 49.56640625 C10.21248385 42.63089223 2.05976552 35.50865272 0 24 C-0.58090728 16.01420961 -0.31512132 7.99341578 0 0 Z " fill="#03A3FD" transform="translate(15,117)"/>
<path d="M0 0 C5.37354859 4.10283308 6.51076415 8.75433266 8.1875 15 C11.13166982 25.34984373 14.50844968 35.48621102 18.12606812 45.61547852 C18.77506631 47.43334394 19.416971 49.25373705 20.05859375 51.07421875 C20.43298584 52.12182373 20.80737793 53.16942871 21.19311523 54.2487793 C22 57 22 57 22 61 C22.75023437 60.43152344 23.50046875 59.86304688 24.2734375 59.27734375 C26.41136657 57.66447282 28.55487671 56.06227749 30.70703125 54.46875 C32.72929906 52.96826351 34.68534758 51.43953798 36.63671875 49.84375 C41.94465424 45.67261873 45.7569426 44.08777922 52.5703125 44.5703125 C55.66717589 45.1179893 57.71786734 45.79656157 60 48 C60 52 60 52 57.9375 54.15625 C56.968125 54.9296875 55.99875 55.703125 55 56.5 C54.46818115 56.92796875 53.9363623 57.3559375 53.38842773 57.796875 C47.67616829 62.35163092 41.80680583 66.70805412 35.94140625 71.0625 C32.43066829 73.67071935 28.95989905 76.32468772 25.5 79 C24.46230469 79.79148437 23.42460938 80.58296875 22.35546875 81.3984375 C19.8580691 83.31373648 17.41983144 85.29095504 14.98828125 87.2890625 C13.59661145 88.40136364 12.20468778 89.51334724 10.8125 90.625 C10.1834375 91.15867187 9.554375 91.69234375 8.90625 92.2421875 C4.37831042 95.80454162 0.94495071 96.57746418 -4.79418945 96.48193359 C-7.45717439 95.90011486 -8.38515256 95.17329704 -10 93 C-10.61328125 89.67578125 -10.61328125 89.67578125 -10 86 C-8.0499209 83.60811193 -5.70615489 81.94683627 -3.1875 80.1875 C-2.54490234 79.71119141 -1.90230469 79.23488281 -1.24023438 78.74414062 C1.46118697 76.75376697 4.20770202 74.86153199 7 73 C3.49607898 48.49887595 3.49607898 48.49887595 -8.41064453 28.07080078 C-13.50618474 25.817387 -18.47170677 25.53242571 -23.97192383 25.33935547 C-26 25 -26 25 -28.6015625 22.6171875 C-30 20 -30 20 -29.9375 17.375 C-28.91669768 14.78896746 -28.1768721 13.70068133 -26 12 C-23.66015625 11.671875 -23.66015625 11.671875 -21.0625 11.75 C-19.78052734 11.77320313 -19.78052734 11.77320313 -18.47265625 11.796875 C-16.20190102 11.98341413 -14.18475086 12.37144059 -12 13 C-12.10699219 12.31292969 -12.21398437 11.62585937 -12.32421875 10.91796875 C-12.44410156 10.01691406 -12.56398438 9.11585937 -12.6875 8.1875 C-12.81511719 7.29417969 -12.94273438 6.40085937 -13.07421875 5.48046875 C-13 3 -13 3 -11.70703125 1.23828125 C-7.77037461 -1.61737128 -4.53683276 -1.09509756 0 0 Z " fill="#F9FDFE" transform="translate(102,46)"/>
<path d="M0 0 C3 1.125 3 1.125 5 3 C5.625 5.875 5.625 5.875 5 9 C2.8125 11.5625 2.8125 11.5625 0 14 C-1.67398185 15.65931923 -3.3417154 17.32499321 -5 19 C-4.05898437 19.10957031 -3.11796875 19.21914062 -2.1484375 19.33203125 C-0.90320313 19.49058594 0.34203125 19.64914063 1.625 19.8125 C2.85476562 19.96332031 4.08453125 20.11414063 5.3515625 20.26953125 C10.01332104 21.20288119 13.61624775 22.61624775 17 26 C16.8125 29.5 16.8125 29.5 16 33 C10.19994516 36.86670323 3.51719097 35.20089419 -3.06832886 33.94677734 C-7.01312354 33.15180009 -10.94463392 32.30063656 -14.875 31.4375 C-16.56524676 31.07168415 -18.2555139 30.70596247 -19.94580078 30.34033203 C-24.1721219 29.42061291 -28.39407994 28.48245139 -32.61425781 27.53497314 C-34.86702365 27.0298183 -37.12088753 26.52986639 -39.375 26.03076172 C-43.21566585 25.17607266 -47.04602138 24.28071569 -50.875 23.375 C-51.99503418 23.12290771 -53.11506836 22.87081543 -54.26904297 22.61108398 C-62.58380532 20.57189269 -69.21806794 17.35830559 -74 10 C-74.6875 6.25 -74.6875 6.25 -75 3 C-72.22825621 3.53728215 -69.45754183 4.07904286 -66.6875 4.625 C-65.81480469 4.79668701 -64.94210938 4.96837402 -64.04296875 5.14526367 C-58.60943619 6.2305552 -53.20107956 7.39613883 -47.80078125 8.63671875 C-45.98477417 9.05219971 -45.98477417 9.05219971 -44.13208008 9.47607422 C-41.73298676 10.0285575 -39.33562926 10.58863977 -36.94018555 11.15673828 C-35.28369995 11.53741455 -35.28369995 11.53741455 -33.59375 11.92578125 C-32.61083984 12.15692627 -31.62792969 12.38807129 -30.61523438 12.6262207 C-26.43794864 13.22325435 -24.59502946 12.4058489 -21.125 10.0390625 C-20.09375 9.24242188 -19.0625 8.44578125 -18 7.625 C-16.96875 6.83351563 -15.9375 6.04203125 -14.875 5.2265625 C-13.18799494 3.92005043 -11.51350533 2.59652186 -9.87109375 1.234375 C-6.78970411 -0.79844155 -3.51786582 -0.50155711 0 0 Z " fill="#F9FCFE" transform="translate(191,62)"/>
<path d="M0 0 C4.9858166 12.50905772 4.9858166 12.50905772 4 17 C1.88794394 19.50806657 0.28235407 20.75114713 -2.97265625 21.3828125 C-6.26945457 21.5676797 -8.53024956 21.30470299 -11.3125 19.5 C-14.10078978 15.36920032 -15.94820606 11.27893347 -16.0625 6.25 C-12.84683287 -0.55964804 -6.55499625 -0.5243997 0 0 Z " fill="#F5FBFE" transform="translate(133,131)"/>
</svg>
