<?xml version="1.0" encoding="UTF-8"?>
<svg version="1.1" xmlns="http://www.w3.org/2000/svg" width="96" height="96">
<path d="M0 0 C3.92857869 2.15561575 6.60742624 4.18771333 7.97479248 8.57208252 C9.09506858 16.22140467 8.54482885 23.91019551 8.12109375 31.59765625 C8.04579473 33.96528427 7.97736357 36.3331413 7.91601562 38.70117188 C7.75126656 44.48418705 7.5008863 50.25860912 7.18359375 56.03515625 C6.60471909 56.36561447 6.02584442 56.69607269 5.4294281 57.0365448 C2.74186463 58.57097575 0.05452239 60.10579376 -2.6328125 61.640625 C-3.59755997 62.19139206 -4.56230743 62.74215912 -5.55628967 63.30961609 C-10.39172061 66.07172497 -15.22002093 68.84442157 -20.03125 71.6484375 C-21.60500756 72.54898352 -23.17919163 73.44878481 -24.75390625 74.34765625 C-25.56279297 74.82654297 -26.37167969 75.30542969 -27.20507812 75.79882812 C-30.4903645 77.65502836 -32.93376477 78.98428013 -36.73046875 79.203125 C-41.57223278 77.37060925 -45.84995444 74.73543397 -50.25390625 72.03515625 C-51.5987207 71.22498047 -51.5987207 71.22498047 -52.97070312 70.3984375 C-54.86722914 69.25492427 -56.74876762 68.08627259 -58.61645508 66.89624023 C-61.05902954 65.47564474 -63.26029885 64.40411318 -65.8503418 63.34790039 C-70.03982225 61.50669414 -73.94064725 59.70310547 -76.81640625 56.03515625 C-79.22322531 49.1845589 -78.22337924 41.58207182 -77.75390625 34.47265625 C-77.67858478 32.49048669 -77.61015737 30.50804244 -77.54882812 28.52539062 C-77.38424962 23.68848649 -77.12606335 18.86485427 -76.81640625 14.03515625 C-74.16935716 15.34525157 -71.52374065 16.65810389 -68.87890625 17.97265625 C-68.12416016 18.34583984 -67.36941406 18.71902344 -66.59179688 19.10351562 C-65.87314453 19.46123047 -65.15449219 19.81894531 -64.4140625 20.1875 C-63.74898682 20.51741943 -63.08391113 20.84733887 -62.39868164 21.18725586 C-60.81640625 22.03515625 -60.81640625 22.03515625 -59.81640625 23.03515625 C-59.92742035 24.53488322 -60.08978238 26.03086391 -60.2734375 27.5234375 C-60.74056258 33.55735441 -61.12201512 39.33062043 -58.81640625 45.03515625 C-53.30503239 50.87629228 -44.60605312 55.18142288 -36.81640625 57.03515625 C-32.59275976 56.70860849 -29.52201216 55.60260894 -25.85546875 53.53125 C-25.05834473 53.0870874 -24.2612207 52.6429248 -23.43994141 52.18530273 C-22.4504248 51.62012939 -21.4609082 51.05495605 -20.44140625 50.47265625 C-17.26515625 48.67828125 -14.08890625 46.88390625 -10.81640625 45.03515625 C-10.81640625 35.79515625 -10.81640625 26.55515625 -10.81640625 17.03515625 C-19.72640625 12.08515625 -19.72640625 12.08515625 -28.81640625 7.03515625 C-28.81640625 6.37515625 -28.81640625 5.71515625 -28.81640625 5.03515625 C-26.47124363 3.35535147 -24.15243742 1.83856184 -21.69140625 0.34765625 C-21.02625 -0.08095703 -20.36109375 -0.50957031 -19.67578125 -0.95117188 C-19.01835938 -1.35142578 -18.3609375 -1.75167969 -17.68359375 -2.1640625 C-17.08659668 -2.53362061 -16.48959961 -2.90317871 -15.87451172 -3.28393555 C-10.7390439 -4.98296517 -4.66847319 -2.28576132 0 0 Z " fill="#208EEE" transform="translate(82.81640625,16.96484375)"/>
<path d="M0 0 C2.64704909 1.31009532 5.2926656 2.62294764 7.9375 3.9375 C8.69224609 4.31068359 9.44699219 4.68386719 10.22460938 5.06835938 C11.30258789 5.60493164 11.30258789 5.60493164 12.40234375 6.15234375 C13.06741943 6.48226318 13.73249512 6.81218262 14.41772461 7.15209961 C16 8 16 8 17 9 C16.86438287 10.48858194 16.67881638 11.97266352 16.47265625 13.453125 C15.93395638 19.54069887 15.48134895 25.29872659 18 31 C24.59780255 37.3640856 33.60329421 40.66647635 42 44 C42 50.93 42 57.86 42 65 C37.71854343 64.14370869 35.7863948 63.52022019 32.2265625 61.375 C31.31777344 60.83230469 30.40898438 60.28960937 29.47265625 59.73046875 C28.53292969 59.15941406 27.59320313 58.58835938 26.625 58 C25.27341797 57.18982422 25.27341797 57.18982422 23.89453125 56.36328125 C21.98757865 55.21910969 20.09514581 54.05047459 18.21606445 52.86108398 C15.76754445 51.44416544 13.5553368 50.369844 10.96166992 49.31274414 C6.77301304 47.47202152 2.87384439 45.6682757 0 42 C-2.40613544 35.14889432 -1.40699441 27.54723995 -0.9375 20.4375 C-0.86217853 18.45533044 -0.79375112 16.47288619 -0.73242188 14.49023438 C-0.56784337 9.65333024 -0.3096571 4.82969802 0 0 Z " fill="#1C7CD0" transform="translate(6,31)"/>
<path d="M0 0 C2.38306296 1.21411976 4.52242126 2.42832527 6.75 3.875 C7.33910156 4.23980469 7.92820312 4.60460937 8.53515625 4.98046875 C12.85602679 7.71205357 12.85602679 7.71205357 14 10 C11.45673939 11.73840867 8.88804477 13.43486879 6.3125 15.125 C5.2306543 15.86556641 5.2306543 15.86556641 4.12695312 16.62109375 C-1.28379732 20.12943422 -1.28379732 20.12943422 -4.59375 19.53125 C-5.3878125 19.0259375 -6.181875 18.520625 -7 18 C-8.09957031 17.43023438 -9.19914062 16.86046875 -10.33203125 16.2734375 C-12.05486328 15.33371094 -12.05486328 15.33371094 -13.8125 14.375 C-14.40998047 14.05015625 -15.00746094 13.7253125 -15.62304688 13.390625 C-17.08337135 12.59620849 -18.54187491 11.79844624 -20 11 C-17.10158015 7.91744524 -14.10982412 5.55256267 -10.5625 3.25 C-9.63566406 2.63640625 -8.70882812 2.0228125 -7.75390625 1.390625 C-4.69405398 -0.15449189 -3.36213567 -0.58161376 0 0 Z " fill="#2090EE" transform="translate(51,0)"/>
<path d="M0 0 C0 6.27 0 12.54 0 19 C-2.248125 17.906875 -4.49625 16.81375 -6.8125 15.6875 C-7.51608643 15.34936279 -8.21967285 15.01122559 -8.94458008 14.6628418 C-12.08239238 13.11489045 -14.74992859 11.71848776 -17 9 C-15.41906946 7.87162591 -13.83515284 6.74743482 -12.25 5.625 C-11.36828125 4.99851562 -10.4865625 4.37203125 -9.578125 3.7265625 C-4.01357466 0 -4.01357466 0 0 0 Z " fill="#1C7DD1" transform="translate(48,1)"/>
</svg>
